<?xml version="1.0" standalone="no"?>
<!DOCTYPE svg PUBLIC "-//W3C//DTD SVG 1.1//EN" "http://www.w3.org/Graphics/SVG/1.1/DTD/svg11.dtd" >
<svg xmlns="http://www.w3.org/2000/svg" xmlns:xlink="http://www.w3.org/1999/xlink" version="1.1">
<metadata>
Created by FontForge 20150318 at Fri Apr  3 17:08:12 2015
 By uniteet7
Beast Wars (c) (Neale Davidson). 2013. All Rights Reserved
</metadata>
<defs>
<font id="BeastWars" horiz-adv-x="1650" >
  <font-face 
    font-family="BeastWars"
    font-weight="400"
    font-stretch="normal"
    units-per-em="2048"
    panose-1="2 0 5 0 0 0 0 0 0 0"
    ascent="1638"
    descent="-410"
    x-height="1005"
    cap-height="1322"
    bbox="-256 -421 1896 1841"
    underline-thickness="150"
    underline-position="-142"
    unicode-range="U+0020-F002"
  />
<missing-glyph 
d="M0 200v1100q0 200 200 200h1100q200 0 200 -200v-1100q0 -200 -200 -200h-1100q-200 0 -200 200zM1475 201v1099q0 175 -175 175h-1100q-174 0 -175 -175v-1100q1 -175 175 -175h1101q174 0 174 176z" />
    <glyph glyph-name=".notdef" 
d="M0 200v1100q0 200 200 200h1100q200 0 200 -200v-1100q0 -200 -200 -200h-1100q-200 0 -200 200zM1475 201v1099q0 175 -175 175h-1100q-174 0 -175 -175v-1100q1 -175 175 -175h1101q174 0 174 176z" />
    <glyph glyph-name=".null" horiz-adv-x="0" 
 />
    <glyph glyph-name="nonmarkingreturn" horiz-adv-x="381" 
 />
    <glyph glyph-name="space" unicode=" " horiz-adv-x="719" 
 />
    <glyph glyph-name="space" unicode="&#xa0;" horiz-adv-x="719" 
 />
    <glyph glyph-name="exclam" unicode="!" horiz-adv-x="504" 
d="M117 -61q-32 -27 -73 -27q-75 0 -75 80q0 16 4 36l-11 88l11 94l50 17q0 24 20 24q23 0 61 -23q40 -25 40 -46l6 -159zM348 487l-273 -18l48 228l49 -23q-20 14 -20 111q0 151 29 264q14 45 29 57l-60 -33l77 183l265 -28l-50 -260l-154 -45l123 -116z" />
    <glyph glyph-name="quotedbl" unicode="&#x22;" horiz-adv-x="365" 
d="M-27 1103q98 36 98 71q0 29 -81 29h-17l-11 89l11 93l50 17q0 25 20 25q22 0 61 -24q39 -25 40 -45l5 -160l-32 -83l-255 -150zM215 1103q99 36 99 71q0 29 -82 29h-17l-10 89l10 93l51 17q0 25 19 25q22 0 60 -24q41 -26 42 -45l5 -160l-33 -83l-255 -150z" />
    <glyph glyph-name="numbersign" unicode="#" horiz-adv-x="1076" 
d="M385 485h208l51 207h-208zM766 347l-27 -105l-53 29l-100 22l-54 -51l26 105h-208l-26 -105l-70 24l-60 5l-77 -29l26 105l-92 24l-81 -24l35 138h173l51 207h-173l60 82l-25 56h172l36 138l82 39l61 -12l64 -27l-36 -138h208l35 138l61 -27l89 60l58 -33l-35 -138h173
l-47 -39l-33 -61l45 -38h-173l-51 -207h173l-35 -138h-172z" />
    <glyph glyph-name="dollar" unicode="$" horiz-adv-x="1771" 
d="M891 230l33 135l44 174l-195 5l-59 -179v94l-63 -226zM1068 227h38q-9 -14 -9 -24q0 -19 27 -19q19 0 43 10l205 138l66 105q13 30 13 57q0 65 -57 65q-33 0 -77 -29l-183 6l-28 -121zM1227 1062q-4 -17 -17 -64l-21 -75l-49 -88l66 11l-28 -121q532 -5 559 -233
l-84 -226q-90 -119 -286 -189q-103 -36 -215 -36q-61 0 -120 12l-24 -124l-51 21h-132l21 91q-101 -8 -250 -8l-10 -33l-93 -50l-66 -27l-12 67l-55 -51l44 99q-242 14 -320 45l-128 138l-11 61l-61 5q86 15 127 52q20 19 20 40q0 25 -31 52l-33 11q0 31 27 31q57 0 78 -130
l39 -66q9 -44 63 -44h2q4 0 20 2l20 1q22 2 33 2l243 -4l72 164l73 11l-73 61q5 2 29 78l-212 5q-141 60 -141 205q0 84 44 171q46 90 115 133l126 77l129 45l136 -3l62 185l77 6l33 -45l40 28l-41 -177l156 -2l61 196l122 -45q0 -4 -41 -154l58 -1q73 42 186 42
q118 0 182 -38q31 -17 31 -38q0 -19 -28 -38q96 -146 96 -203t-79 -57q-53 0 -112 17q-69 19 -123 51q-42 24 -42 56q0 23 21 48q36 17 36 40t-30 23q-20 0 -45 -13h-183zM935 1062l-17 -73l-89 -274l184 7l38 152l44 67l-60 -34l48 155h-148zM747 1052q-188 -34 -259 -162
l-84 -149l243 -17q16 54 31 106l8 27l51 44l-51 -27z" />
    <glyph glyph-name="percent" unicode="%" horiz-adv-x="1316" 
d="M1272 1266l138 -49l-83 -12l-17 -25q-43 -70 -114 -122q-42 -31 -101 -51q-112 -68 -302 -258l-104 -102q-60 -56 -116 -92q-91 -60 -118 -82q-136 -113 -151 -296l-99 -154l-78 15l-94 -38l66 287l233 305q3 17 39 37q60 32 65 36q26 18 51 54l181 99l-126 -33
q124 172 404 399l93 38zM425 800q-39 -20 -81 -20h-120l-30 -15q-112 23 -127 103q-15 38 -18 73l4 111l33 147l95 39q0 24 20 24l226 -11q60 -11 97 -34q40 -25 41 -46l-16 -185q-16 -102 -51 -144zM1052 185q-40 -20 -81 -20h-120l-30 -15q-113 23 -128 103q-15 38 -18 73
l4 111l34 147l94 39q0 24 20 24l226 -11q60 -11 98 -34q39 -25 40 -46l-16 -185q-16 -102 -51 -144zM325 1125l-75 -75l-50 -25l25 -75l50 -50l75 50v75l50 75l-25 25h-50zM950 525l-75 -75l-50 -25l25 -75l50 -50l75 50v75l50 75l-25 25h-50z" />
    <glyph glyph-name="ampersand" unicode="&#x26;" horiz-adv-x="1119" 
d="M1106 719l-66 -288l-376 23l16 121l-144 -288l-16 -82l-182 72l-79 -44l128 237h-294q-5 0 -22 60l67 -10l-67 77q-2 2 -2 20q0 88 36 141l365 -17l122 315l171 -82l83 82q0 -2 -64 -184l-52 -153h376z" />
    <glyph glyph-name="quotesingle" unicode="'" horiz-adv-x="140" 
d="M-27 1103q98 36 98 71q0 29 -81 29h-17l-11 89l11 93l50 17q0 25 20 25q22 0 61 -24q39 -25 40 -45l5 -160l-32 -83l-255 -150z" />
    <glyph glyph-name="parenleft" unicode="(" horiz-adv-x="816" 
d="M647 -2q-167 7 -320 40q-93 21 -163 69q-123 86 -155 246q-14 72 -14 159q0 25 2 66q3 51 4 69q4 154 129 317q134 174 302 187q111 133 384 133q28 0 58 -2l-121 -60l99 -22q-76 -33 -88 -33l-44 -94q-171 -14 -262 -114q-104 -114 -203 -450l33 -111l-66 -27l61 -28
q44 -20 157 -73q155 -71 268 -71l-54 -61l49 -22z" />
    <glyph glyph-name="parenright" unicode=")" horiz-adv-x="918" 
d="M111 114l44 95q89 8 143 30q65 26 118 84q108 119 203 450l-33 110l66 28l-61 27q-53 26 -208 96q-110 48 -218 48l56 61l-49 22l55 118q56 18 114 18q87 0 207 -58q138 -39 203 -100q129 -120 129 -374q0 -224 -63 -353q-45 -91 -148 -183q-106 -172 -372 -213
q-126 -21 -297 -21l77 62z" />
    <glyph glyph-name="asterisk" unicode="*" horiz-adv-x="1136" 
d="M350 742l-212 -153l23 77l-78 28l171 116h-161q-5 0 -22 60l67 -10l-67 77q-2 2 -2 20q0 88 36 141l271 -12l-127 195l138 -23l16 83l100 -174l89 229l171 -82l83 82q-5 -17 -9 -29l-22 -65q-9 -23 -29 -81l-23 -67l178 121l-28 -61l121 11l-160 -106l-85 -60h317
l-66 -288l-320 19l115 -201l-50 5l-72 -27l-117 180l-60 -120l-16 -82l-182 72l-79 -44z" />
    <glyph glyph-name="plus" unicode="+" horiz-adv-x="1119" 
d="M1106 719l-66 -288l-376 23l16 121l-144 -288l-16 -82l-182 72l-79 -44l128 237h-294q-5 0 -22 60l67 -10l-67 77q-2 2 -2 20q0 88 36 141l365 -17l122 315l171 -82l83 82q0 -2 -64 -184l-52 -153h376z" />
    <glyph glyph-name="comma" unicode="," horiz-adv-x="339" 
d="M-27 -71q98 34 98 70q0 29 -81 29h-17l-11 88l11 94l50 17q0 24 20 24q23 0 61 -23q39 -25 40 -46l5 -159l-32 -84l-255 -149z" />
    <glyph glyph-name="hyphen" unicode="-" horiz-adv-x="1015" 
d="M105 725q0 7 160 27q143 17 165 17h1l348 -11l182 -22l-38 -83l17 -111l-337 -33l-321 16l-199 50l44 61z" />
    <glyph glyph-name="hyphen" unicode="&#xad;" horiz-adv-x="1015" 
d="M105 725q0 7 160 27q143 17 165 17h1l348 -11l182 -22l-38 -83l17 -111l-337 -33l-321 16l-199 50l44 61z" />
    <glyph glyph-name="period" unicode="." horiz-adv-x="340" 
d="M117 -61q-32 -27 -73 -27q-75 0 -75 80q0 16 4 36l-11 88l11 94l50 17q0 24 20 24q23 0 61 -23q40 -25 40 -46l6 -159z" />
    <glyph glyph-name="slash" unicode="/" horiz-adv-x="1316" 
d="M1272 1266l138 -49l-83 -12l-17 -25q-43 -70 -114 -122q-42 -31 -101 -51q-112 -68 -302 -258l-104 -102q-60 -56 -116 -92q-91 -60 -118 -82q-136 -113 -151 -296l-99 -154l-78 15l-94 -38l66 287l233 305q3 17 39 37q60 32 65 36q26 18 51 54l181 99l-126 -33
q124 172 404 399l93 38z" />
    <glyph glyph-name="zero" unicode="0" horiz-adv-x="1342" 
d="M245 38q-249 74 -249 467v6l5 136q2 75 25 153q57 192 176 294q57 50 122 57q55 89 174 119q56 14 115 14q183 0 321 -95q237 -74 293 -281q20 -77 32 -210q14 -157 23 -211q-37 -114 -153 -254q-140 -172 -282 -177q-141 -60 -310 -60q-150 0 -292 42zM532 199
q183 8 301 63q207 96 207 275q0 4 -3 38q-7 94 -23 186q-6 33 -26 74l-108 55l62 17l-62 26q-22 10 -57 41q-36 32 -55 41l-83 42q-49 25 -83 25q-25 0 -62 -9q-98 -10 -158 -67q-48 -47 -91 -149q-50 -118 -99 -348l25 -111l-51 -27l47 -28q32 -20 115 -72q117 -72 201 -72
h3z" />
    <glyph glyph-name="one" unicode="1" horiz-adv-x="460" 
d="M112 818q7 56 8 184q1 53 5 90l33 164l291 66l-18 -94q3 -6 3 -17q0 -32 -34 -162l-47 -175q-17 -65 -17 -166l-70 -708l-200 33l-66 -33l29 161z" />
    <glyph glyph-name="two" unicode="2" horiz-adv-x="1282" 
d="M710 497q-267 0 -435 -145q-70 -61 -88 -114l643 -11q-8 -13 -8 -24q0 -19 20 -19q14 0 33 10l125 -123l54 -115q-111 110 -251 110q-37 0 -57 -5q-102 -28 -284 -28q-309 0 -400 50l-62 132q30 154 198 269q128 88 314 141q184 0 277 20q134 29 286 129q49 32 49 85
q0 65 -95 191l-406 12q-84 0 -156 -47t-102 -125q-48 -26 -83 -26q-61 0 -61 64q0 69 78 134l96 77l94 45l499 -12q65 12 115 12q82 0 121 -41q11 -11 41 -43q12 -24 12 -64q0 -144 -115 -327q-121 -191 -248 -191q-23 0 -43 7zM299 913l-38 43q-13 -4 -13 -13q0 -13 18 -28
t31 -15q5 0 5 4t-3 9z" />
    <glyph glyph-name="three" unicode="3" horiz-adv-x="1375" 
d="M631 1062l-161 11q-85 46 -160 46l-54 -7h-1l10 9q9 6 28 24l88 83l108 -44l499 -12q63 48 135 48q60 0 99 -30q43 -32 43 -90q-9 -84 -114 -202q-39 -43 -80 -83l-38 -36q-8 -10 -56 -60q307 -27 325 -227l-62 -226q-77 -141 -219 -222q-78 -44 -165 -44q-49 0 -98 17
q-41 -14 -128 -14q-120 0 -324 29q-236 33 -306 73l-112 50l112 -22l70 105l95 84l26 -35l179 -53l459 -7q-7 -13 -7 -24q0 -19 20 -19q14 0 34 10l153 138l49 105q6 10 6 27q0 69 -72 69q-13 0 -24 -3l-228 8l-218 76l151 94l66 54l54 -16l-16 51l245 210l15 55h-426z
M166 272l-55 -34l104 5z" />
    <glyph glyph-name="four" unicode="4" horiz-adv-x="1112" 
d="M592 -17l72 499l72 66l-60 -24l10 79l-587 77l-99 188h17q148 0 309 89q77 43 150 104q83 104 170 210q139 168 282 168q70 0 89 -67l-71 -609l132 6l-55 -50l44 -161l-166 23l-71 -366l-12 -182l-77 -71l-94 61q6 11 6 17q0 3 -2 3q-9 0 -59 -60zM398 797l327 -23
q3 26 11 101l22 209q-97 -152 -207 -222q-64 -41 -153 -65z" />
    <glyph glyph-name="five" unicode="5" horiz-adv-x="1084" 
d="M65 166q-15 51 -15 101q0 131 110 203l154 -21q-47 -99 -47 -160q0 -83 87 -107q43 -11 109 -11t161 11l161 105l17 174q0 87 -48 164q-56 91 -174 121l-343 89l244 304q78 120 300 171q97 23 179 23q83 0 120 -22l-2 -50l21 -44l-56 -28l20 -50l-266 22q-79 -8 -192 -92
q-109 -82 -147 -156q244 -20 361 -89q163 -96 163 -309q0 -74 -21 -189l-81 -177l-191 -95q-130 -46 -285 -46q-269 0 -339 158z" />
    <glyph glyph-name="six" unicode="6" horiz-adv-x="1047" 
d="M174 338q10 -83 148 -150q57 -27 91 -27q28 0 46 -1l57 -2h5q65 0 103 24l162 105l8 89q0 71 -101 122q-51 26 -117 26q-176 0 -402 -186zM881 149l-191 -95q-130 -46 -285 -46q-270 0 -339 158q-50 62 -50 168q0 213 176 500q60 100 126 176q97 117 163 129
q78 120 301 171q97 23 178 23q84 0 120 -22l-1 -50l21 -44l-56 -28l19 -50l-265 22q-80 -8 -192 -92q-110 -82 -147 -156q-196 -160 -262 -420q262 196 458 196q144 0 229 -102q79 -95 79 -242v-10q-2 -6 -2 -9z" />
    <glyph glyph-name="seven" unicode="7" horiz-adv-x="1186" 
d="M238 205q-53 -71 -70 -167l52 39zM917 1184q-242 -138 -372 -138q-103 0 -169 82l-140 -66l-5 132l109 78l147 -11h410q79 49 199 49q81 0 81 -36v-8l95 -49l-65 -12q-35 -54 -62 -86q-65 -78 -147 -112q-97 -70 -187 -195q-24 -33 -39 -49q-124 -134 -220 -335
q-53 -113 -86 -251q-39 -162 -141 -162q-32 0 -75 18l-137 -71q0 120 208 502l85 -15l-51 88q36 62 90 137q17 24 44 56q14 123 112 193l39 27q39 56 204 170q76 52 76 60q-1 2 -3 4z" />
    <glyph glyph-name="eight" unicode="8" horiz-adv-x="1409" 
d="M567 149q196 6 321 46q222 73 222 202v4l-3 30q-6 50 -26 69q-8 47 -37 88l-115 42l66 12l-66 20q-22 6 -79 41q-25 14 -41 20l-87 31q-54 19 -90 19q-33 0 -66 -7q-75 -7 -118 -24q-101 -37 -173 -184q-28 -40 -71 -177l27 -83l-53 -21l48 -20q35 -15 126 -55
q124 -53 211 -53h4zM1087 1096q-19 76 -163 140q-59 25 -93 26l-104 2q-71 0 -104 -22l-152 -99v-83q0 -30 40 -67q80 -72 191 -72q178 0 385 175zM969 861q9 -4 17 -8q253 -54 312 -210q22 -57 34 -157q26 -82 36 -122q-39 -84 -163 -190q-149 -128 -302 -133
q-150 -44 -330 -44q-69 0 -151 7q-205 22 -291 76q-98 64 -124 184q-11 54 -11 120q0 19 2 50q2 37 3 50q13 98 93 173q107 130 232 186q33 16 66 30q-86 97 -95 234l65 166l184 89q123 43 279 43q274 0 354 -148q71 -73 71 -200l-41 -69q-131 -77 -240 -127z" />
    <glyph glyph-name="nine" unicode="9" horiz-adv-x="1022" 
d="M846 974q-19 80 -163 149q-59 27 -93 28l-104 1q-71 0 -104 -23l-152 -105v-89q0 -33 40 -72q80 -76 191 -76q178 0 385 187zM121 1162l184 95q123 46 279 46q274 0 354 -158q71 -78 71 -213q0 -161 -113 -397q-126 -263 -263 -291q-59 -107 -237 -183q-172 -74 -298 -74
q-48 0 -70 13l-3 50l-25 45l53 27l-24 50l268 -22q77 8 182 92q104 82 135 156q181 162 224 420q-245 -196 -441 -196q-152 0 -246 113q-86 104 -95 250z" />
    <glyph glyph-name="colon" unicode=":" horiz-adv-x="279" 
d="M117 -61q-32 -27 -73 -27q-75 0 -75 80q0 16 4 36l-11 88l11 94l50 17q0 24 20 24q23 0 61 -23q40 -25 40 -46l6 -159zM117 354q-32 -28 -73 -28q-75 0 -75 81q0 15 4 35l-11 88l11 94l50 17q0 24 20 24q23 0 61 -23q40 -25 40 -45l6 -160z" />
    <glyph glyph-name="semicolon" unicode=";" horiz-adv-x="277" 
d="M-27 -71q98 34 98 70q0 29 -81 29h-17l-11 88l11 94l50 17q0 24 20 24q23 0 61 -23q39 -25 40 -46l5 -159l-32 -84l-255 -149zM117 354q-32 -28 -73 -28q-75 0 -75 81q0 15 4 35l-11 88l11 94l50 17q0 24 20 24q23 0 61 -23q39 -25 40 -45l5 -160z" />
    <glyph glyph-name="semicolon" unicode="&#x37e;" horiz-adv-x="277" 
d="M-27 -71q98 34 98 70q0 29 -81 29h-17l-11 88l11 94l50 17q0 24 20 24q23 0 61 -23q39 -25 40 -46l5 -159l-32 -84l-255 -149zM117 354q-32 -28 -73 -28q-75 0 -75 81q0 15 4 35l-11 88l11 94l50 17q0 24 20 24q23 0 61 -23q39 -25 40 -45l5 -160z" />
    <glyph glyph-name="less" unicode="&#x3c;" horiz-adv-x="1079" 
d="M1007 603l-46 -255l-928 354l304 150l50 -12l6 51l608 209l16 -237l-536 -166z" />
    <glyph glyph-name="equal" unicode="=" horiz-adv-x="1017" 
d="M145 880l369 43q15 1 65 3l207 9h5q32 0 118 -15q82 -13 126 -13l-39 -50v-78l-50 -49l-370 -33l-422 11q-27 39 -27 44l12 100zM84 525l353 -10l276 21h183v-72l-28 -77l6 -77l-447 -33q-30 4 -188 22q-43 6 -50 6l-133 15z" />
    <glyph glyph-name="greater" unicode="&#x3e;" horiz-adv-x="1126" 
d="M169 779l44 255l929 -354l-304 -150l-49 12l-7 -51l-608 -209l-16 238l536 166z" />
    <glyph glyph-name="question" unicode="?" horiz-adv-x="1677" 
d="M934 623q-59 -54 -247 -82q-102 -15 -173 -20l-148 -12l-56 33l38 -55l-273 -18l48 228l286 -11l94 55l112 11h35q360 0 505 120q90 73 95 135q-47 6 -125 6q-66 0 -140 -3l-139 -3q-205 0 -303 38q-42 16 -139 26q-41 5 -147 17q-51 6 -51 15q1 1 4 3l-88 -28l50 188
l83 -16l132 -33q189 39 329 39q217 0 401 -95q91 5 159 11l113 8q140 10 219 10q172 0 189 -51q-63 -215 -358 -360q-221 -109 -505 -156zM117 -61q-32 -27 -73 -27q-75 0 -75 80q0 16 4 36l-11 88l11 94l50 17q0 24 20 24q23 0 61 -23q40 -25 40 -46l6 -159z" />
    <glyph glyph-name="at" unicode="@" horiz-adv-x="1342" 
d="M675 393q-17 -3 -33 -3h-120l-30 -15q-113 23 -128 103q-15 38 -18 73l4 111l34 147l94 39q0 24 21 24l225 -11q60 -11 98 -34q40 -25 40 -46l-15 -185q-3 -19 -7 -36l15 3h45q81 21 126 123q-5 38 -12 75q-6 33 -26 74l-108 55l62 17l-62 26q-22 10 -57 41
q-36 32 -55 41l-83 42q-49 25 -83 25q-25 0 -62 -9q-98 -10 -158 -67q-48 -47 -91 -149q-50 -118 -99 -348l25 -111l-51 -27l47 -28q32 -20 115 -72q117 -72 201 -72h3q183 8 301 63q77 35 125 82l92 31q105 0 172 -13q-37 -62 -93 -129q-140 -172 -282 -177
q-141 -60 -310 -60q-150 0 -292 42q-249 74 -249 467v6l5 136q2 75 25 153q57 192 176 294q57 50 122 57q55 89 174 119q56 14 115 14q183 0 321 -95q237 -74 293 -281q19 -72 31 -192l2 -3q-23 -75 -60 -150q-60 -60 -150 -113q-98 -45 -188 -75l-75 -37l-112 37v18z" />
    <glyph glyph-name="A" unicode="A" horiz-adv-x="1576" 
d="M1100 658q28 49 48 156q16 92 16 164q0 50 -8 78l-454 -382zM1156 1277v45l177 -89q61 74 118 74q18 0 30 -8l-10 -442l-31 -225q-11 -73 -39 -263q-24 -164 -24 -258q0 -54 57 -54q18 0 42 4l-110 -116q-10 -3 -21 -3q-37 0 -65 59q-12 26 -16 26t-8 -10
q-44 -21 -71 -21q-68 0 -68 141q0 52 11 155q9 73 39 244l-133 -54l33 60q-34 8 -58 8q-44 0 -99 -6l-99 -10q-26 -3 -225 -9l-210 -193l-215 -321l-95 -6l-66 56q0 80 127 244q80 104 190 215q130 133 219 199q116 187 312 360q189 168 308 198z" />
    <glyph glyph-name="B" unicode="B" horiz-adv-x="1790" 
d="M291 207l926 125q11 14 106 45q86 27 86 45q0 42 -399 90q-367 43 -492 43q-140 0 -152 -46zM543 1045l-16 -53q-37 -129 -37 -174q0 -21 13 -21l-21 -45l-72 -66l93 55l111 11h36q360 0 505 120q90 73 95 135l-270 32q-153 17 -277 17q-98 0 -160 -11zM899 576l48 42
q92 8 191 8q248 0 418 -49q153 -44 153 -90q-35 -80 -210 -170q-122 -61 -258 -107q-460 -155 -1096 -155q-50 0 -75 1l-140 -18l-56 45l127 94l166 915l-105 -8l27 210l111 -11l188 -66q188 39 328 39q218 0 402 -95q90 5 159 11l113 8q139 10 218 10q173 0 190 -51
q-63 -215 -359 -360q-220 -109 -504 -156z" />
    <glyph glyph-name="C" unicode="C" horiz-adv-x="1707" 
d="M1057 1007l-22 43q-114 45 -177 45q-27 0 -69 -10q-51 -10 -69 -12q-174 -17 -262 -114q-104 -114 -203 -450l33 -111l-66 -27l66 -28q148 -148 355 -148q32 0 65 4q78 -15 147 -15q154 0 225 68l396 312l6 -55l78 -15l22 -45l128 38l-460 -376q-40 -33 -128 -60
q-166 -50 -409 -50q-216 0 -386 37q-93 21 -163 69q-123 86 -155 246q-14 72 -14 159q0 26 2 66q3 54 4 69q4 108 65 219q134 240 338 290q159 128 390 128q163 0 307 -73l111 55l-72 -282q1 -35 1 -51q0 -213 -80 -309q-35 -41 -65 -41q-51 0 -51 88q0 125 112 336z" />
    <glyph glyph-name="D" unicode="D" horiz-adv-x="1732" 
d="M-70 38l71 139l58 323l35 -91l-9 235l66 363l-72 38l21 160l100 78q65 -72 149 -72q15 0 39 6q183 39 329 39q242 0 401 -95q329 -78 454 -273q52 -82 87 -194q14 -47 51 -207q-35 -82 -257 -204q-240 -131 -438 -137q-189 -60 -420 -81q-137 -13 -327 -13q-78 0 -198 4z
M1174 933q-51 43 -150 82q-157 62 -363 62q-81 0 -140 -10q-49 -8 -67 -161q-8 -75 -16 -99l-61 -182l-133 -17l123 -99l-75 -302l219 8q189 7 447 92q135 44 229 100q149 88 149 182q0 13 -3 19q-14 144 -63 221l-96 61l39 11z" />
    <glyph glyph-name="E" unicode="E" horiz-adv-x="1424" 
d="M989 791l67 -28l-22 44zM951 818l99 28l73 -77l-61 -77l-78 -16l-348 -68q-12 -2 -26 -2q-69 0 -69 66q0 15 8.5 44t8.5 42q-5 0 -35 -19l-48 -31l-44 -271q-5 0 -72 -83l44 -39q588 104 756 104q117 0 117 -45q0 -33 -67 -115l-76 -93l161 44l-28 -72l-1197 -82
l-235 -56l204 161l-38 16l14 78l-42 22l66 110l128 705l-55 -47l-17 78l17 71l110 117l-11 -55q226 1 327 5q185 7 326 25q61 8 140 23q29 4 114 24l144 39l199 5l66 -121q0 -33 -52 -102q-21 -27 -39 -27q-32 0 -48 84q0 -4 -150 -22l-93 -11l-426 -50l-82 -38l-111 22
l-11 -123q-1 -5 -1 -9q0 -40 67 -45l-71 -12l-12 -55l56 6l78 16q25 18 63 36q11 6 30 6q64 0 227 -114z" />
    <glyph glyph-name="F" unicode="F" horiz-adv-x="1425" 
d="M488 935l10 -67l56 6l78 16q25 18 64 36q9 6 30 6q63 0 226 -114l172 -49l-61 -77l-78 -16l-348 -68q-31 7 -56 7q-18 0 -32 -1q-18 0 -72 94l-67 -354q20 30 31 30q9 0 9 -18q0 -83 -81 -213q-85 -135 -207 -153l-227 -33l66 210l38 133l-66 -33l66 110l61 338l221 132
l-194 17l40 218l-55 -47l-18 78l18 71l110 117l-11 -55q226 1 327 5q185 7 326 25q61 8 140 23q29 4 114 24l144 39l199 5l66 -121q0 -33 -51 -102q-21 -27 -40 -27q-32 0 -47 84q0 -4 -151 -22l-92 -11l-426 -50l-83 -38l-111 22z" />
    <glyph glyph-name="G" unicode="G" horiz-adv-x="1425" 
d="M298 338q52 -83 270 -150q89 -27 133 -27q38 0 64 -1l77 -2h12q80 0 119 24l164 105l84 172q-9 34 -123 49q-70 9 -144 9q-164 0 -269 -35l39 82l-56 105q129 15 229 15q255 0 398 -90q81 -51 119 -140l-82 -305l-321 -570l-23 101l-159 -83l232 309l94 11l-61 39l29 98
q-152 -46 -358 -46q-359 0 -528 158q-61 33 -116 108q-86 117 -86 283q0 112 38 224q40 116 109 198q65 76 132 88q40 104 251 183q197 75 369 75q63 0 99 -14l22 -50l50 -44l-61 -28l50 -50l-365 22q-88 -7 -199 -85q-118 -83 -133 -163q-152 -130 -152 -339
q0 -116 53 -236z" />
    <glyph glyph-name="H" unicode="H" horiz-adv-x="1424" 
d="M1069 694q-179 -89 -188 -97h-430l-77 77q0 -71 -10 -71l-51 4l-6 -26l-99 -66l93 -39l-110 -432l-246 -72l83 354q44 97 44 256v44q0 113 28 159l116 476l67 23v-90l141 -5l55 100l66 -78l-133 -194l-60 -250l628 -26l98 38l8 34q45 0 56 108q4 45 4 80l33 321
q-3 17 -3 28q0 68 80 68q76 0 128 -69q24 -33 24 -71q0 -32 -20 -67q-4 -123 -33 -181q-23 -46 -23 -116q0 -11 1 -51l-77 -548q-16 -116 -82 -211q-71 -100 -131 -100q-80 0 -84 145l33 244z" />
    <glyph glyph-name="I" unicode="I" horiz-adv-x="571" 
d="M149 818q8 45 13 213q2 36 4 61l44 164l387 66l-22 -94q3 -8 3 -17q0 -30 -45 -159l-60 -171q-24 -67 -24 -173l-95 -708l-265 33l-89 -33l38 161z" />
    <glyph glyph-name="J" unicode="J" horiz-adv-x="1432" 
d="M27 476l78 293q27 -56 33 -56l83 39l89 -22l-57 -288q-3 -20 -3 -34q0 -41 34 -75q24 -18 70 -56q0 -13 -22 -20q-26 -10 -31 -16q-14 -15 -14 -42l89 39q67 -43 156 -43q27 0 48 4q129 13 196 41q146 62 195 185q19 45 31 95l73 293q45 0 56 108q5 45 5 80l32 321
q-3 17 -3 28q0 68 90 68q76 0 128 -69q23 -33 23 -71q0 -32 -19 -67q-12 -279 -90 -552q-26 -87 -48 -144q-19 -198 -129 -306q-142 -138 -507 -186q-323 0 -477 165q-116 124 -116 257q0 30 7 31z" />
    <glyph glyph-name="K" unicode="K" horiz-adv-x="1213" 
d="M1140 0l-56 -83l-76 -22l-66 50l27 99l-22 183q8 18 8 44q-10 109 -123 186q-63 44 -154 52q-32 3 -98 21q-130 -68 -231 -68q-31 0 -74 8l-89 -442l-241 -56l83 354q44 97 44 256v44q0 113 28 159l116 476l67 23l50 -90l102 -71l-105 -470q44 -22 103 -22q120 0 324 183
q202 214 325 396l41 -98l51 27l39 -22q-213 -293 -422 -455q151 -12 249 -148q107 -149 107 -393q0 -50 -7 -121zM998 -55l53 -11l50 56z" />
    <glyph glyph-name="L" unicode="L" horiz-adv-x="1291" 
d="M553 1344l-9 -67l-63 -49l55 5l-22 -244q-9 -43 -173 -43h-15l183 -23l-78 -486q-5 0 -72 -83l44 -39q588 104 756 104q117 0 117 -45q0 -33 -67 -115l-76 -93l161 44l-28 -72l-1197 -82l-235 -56l204 161l-38 16l14 78l-42 22l66 110l128 705l-55 -47l-17 78l17 71
l110 117l-11 -55q21 -4 52 -4q75 0 153 24q87 25 138 68z" />
    <glyph glyph-name="M" unicode="M" horiz-adv-x="1901" 
d="M736 1145l82 22l39 22l-33 16q-6 0 -26 -6t-23 -10q-6 -6 -17 -19zM1266 758q19 21 57 45l62 39q55 36 58 76q110 137 110 206q0 40 -38 60l77 82l78 6l78 -44l49 -23l-32 -159l-40 -51l-16 -232q-1 -16 -25 -252q-16 -159 -16 -248q0 -144 96 -174l-127 -89h-237l76 133
q35 24 35 132q0 40 -6 114l-6 103l-11 226l-237 -293q-88 -110 -254 -276l-6 -6q-46 -46 -134 -110l-271 -6l244 237q-72 40 -98 174q-13 66 -13 134q0 100 22 202l-210 -255l-44 -22l10 -28l-273 -383q-52 -73 -52 -76l-106 -17l-66 78l183 388l137 171l-14 54
q76 126 228 315q186 234 263 261l116 -22l49 -67q4 -51 4 -103q0 -118 -19 -285l-15 -144q-8 -64 -8 -108q0 -116 55 -128l172 227q18 24 39 42q8 7 27 24l155 22z" />
    <glyph glyph-name="N" unicode="N" horiz-adv-x="1438" 
d="M1333 863l-77 -548q-63 -23 -98 -88q-32 -59 -32 -132q0 -47 14 -95l-171 149l-32 78q4 8 4 15q0 62 -133 195q-149 130 -207 130q-123 59 -189 214q-31 75 -31 152q0 35 7 68l-25 11l-106 -442l-49 -55l33 -38l-105 -460l-191 -45l83 354q44 97 44 256v44q0 113 28 159
l116 476l67 23l50 -90l61 -5l55 100l66 -78q-4 -39 -4 -74q0 -258 183 -426q132 -121 310 -191l72 293q45 0 56 108q4 45 4 80l33 321q-3 17 -3 28q0 68 90 68q76 0 128 -69q24 -33 24 -71q0 -32 -20 -67q-4 -123 -33 -181q-23 -46 -23 -116q0 -11 1 -51z" />
    <glyph glyph-name="O" unicode="O" horiz-adv-x="1761" 
d="M164 107q-123 86 -155 246q-14 72 -14 159q0 25 2 66q3 51 4 69q4 154 129 317q134 174 302 187q74 89 231 119q75 14 155 14q239 0 427 -95q317 -73 390 -281q27 -75 43 -209q20 -160 32 -212q-49 -113 -204 -254q-186 -172 -377 -177q-187 -60 -413 -60q-86 0 -188 11
q-257 28 -364 100zM708 199q246 8 402 62q278 97 278 269v6q-1 0 -5 39q-6 67 -19 143q-11 62 -47 117l-144 55l84 17l-84 26q-27 8 -98 55q-31 19 -52 27l-108 41q-67 26 -112 26q-41 0 -83 -9q-94 -10 -147 -32q-127 -50 -217 -246q-47 -103 -101 -286l33 -111l-66 -27
l61 -28q44 -20 157 -73q155 -71 264 -71h4z" />
    <glyph glyph-name="P" unicode="P" horiz-adv-x="1677" 
d="M543 1045l-16 -53q-37 -129 -37 -174q0 -21 13 -21l-22 -45l-72 -66l94 55l111 11h36q359 0 505 120q90 73 94 135l-270 32q-153 17 -276 17q-98 0 -160 -11zM934 623q-60 -54 -247 -82q-102 -15 -173 -20l-148 -12l-56 33l39 -55l-122 -464l-110 -84l-205 -50l61 139
l-11 88l11 94l50 17l188 879l-89 -28l50 188l83 -16l133 -33q188 39 328 39q218 0 401 -95q91 5 159 11l113 8q140 10 218 10q173 0 191 -51q-64 -215 -360 -360q-219 -109 -504 -156z" />
    <glyph glyph-name="Q" unicode="Q" horiz-adv-x="1767" 
d="M1226 70q-50 -14 -97 -14q-187 -60 -413 -60q-204 0 -389 42q-269 62 -318 315q-14 72 -14 159q0 25 2 66q3 51 4 69q4 154 129 317q134 174 302 187q74 89 231 119q75 14 155 14q239 0 427 -95q317 -73 390 -281q27 -75 43 -209q20 -160 32 -212q-33 -72 -133 -183
q-57 -62 -110 -105l165 -353l-96 -6q-27 -27 -29 -33l-11 -33zM1314 375q74 74 74 161q-2 6 -5 39q-6 67 -19 143q-11 62 -47 117l-144 55l84 17l-84 26q-27 8 -98 55q-31 19 -52 27l-108 41q-67 26 -112 26q-41 0 -83 -9q-94 -10 -147 -32q-127 -50 -217 -246
q-47 -103 -101 -286l33 -111l-66 -27l61 -28q44 -20 157 -73q155 -71 264 -71h4q212 6 372 54l-98 67l-22 95l25 100l75 -39l14 54l31 -21l20 55l207 -133l-32 -55z" />
    <glyph glyph-name="R" unicode="R" horiz-adv-x="1523" 
d="M365 702l249 6q143 3 297 66q189 76 239 187q16 36 17 51q-243 33 -487 33q-14 0 -41.5 7.5t-41.5 7.5q-22 0 -55 -15q-73 -44 -88 -127q-28 -155 -89 -216zM1631 -210l-271 133h-143l-28 215l-22 -72l-89 155l-61 -22q-24 157 -80 241q-71 110 -207 135q-29 -7 -68 -10
l-100 -9q-130 -12 -197 -41l11 99q-8 4 -14 4q-39 0 -63 -179q-5 -46 -22 -212l-155 -348l-6 60l-60 -27l43 88l-99 -22q53 150 104 332q19 68 19 146q0 61 -18 108q-6 15 -6 37q0 112 136 386q54 109 91 169l-27 94l82 11l177 -56h194q21 0 62.5 2t62.5 2q151 0 316 -24
q249 -35 273 -107q0 -269 -281 -394q-92 -41 -206 -59q85 -32 122 -125q16 -40 31 -55q19 -20 58 -20q10 0 15 1q87 -217 234 -414q83 -110 192 -222z" />
    <glyph glyph-name="S" unicode="S" horiz-adv-x="1794" 
d="M654 1184l663 -12q73 42 186 42q118 0 182 -38q31 -17 31 -38q0 -19 -28 -38q96 -146 96 -203t-79 -57q-53 0 -112 17q-69 19 -123 51q-42 24 -42 56q0 23 21 48q36 17 36 40t-30 23q-20 0 -45 -13h-569q-148 0 -262 -73q-56 -36 -91 -99l-84 -149l387 -28l85 5
q63 3 160 5q50 2 103 2q225 0 352 -30q228 -52 246 -203l-84 -226q-75 -102 -225 -166q-140 -59 -276 -59q-78 0 -156 20q-122 -28 -380 -28q-244 0 -411 23q-86 12 -121 27l-128 138l-11 61l-61 5q86 15 127 52q20 19 20 40q0 25 -31 52l-33 11q0 31 27 31q57 0 78 -130
l39 -66q9 -44 63 -44h2q4 0 20 2l20 1q22 2 33 2l857 -11q-9 -14 -9 -24q0 -19 27 -19q19 0 43 10l205 138l66 105q13 30 13 57q0 65 -57 65q-33 0 -77 -29l-936 23q-141 60 -141 205q0 84 44 171q46 90 115 133l126 77z" />
    <glyph glyph-name="T" unicode="T" horiz-adv-x="1450" 
d="M1327 1205q-15 -5 -68 -12q-31 -3 -114 -15l-343 -66q5 -95 5 -144q0 -141 -47 -300q-28 -92 -79 -226l38 12q-12 -142 -131 -273q-122 -134 -261 -148l-166 -71l177 884l227 138l-199 11l16 138l-55 -38l-166 -11l-160 83l-23 66l67 17l33 -28q173 37 482 37
q107 0 193 -3q66 43 178 69q101 24 192 24q98 0 150 -27q21 68 125 68q70 0 157 -35l-66 -39q-6 -64 -91 -96q-38 -15 -71 -15z" />
    <glyph glyph-name="U" unicode="U" horiz-adv-x="1432" 
d="M373 277q0 -13 -21 -20q-26 -10 -32 -16q-14 -15 -14 -42l89 39q67 -43 157 -43q27 0 48 4q98 13 166 41q145 62 195 185q19 45 31 95l82 293q46 0 56 108q5 45 5 80l33 321q-4 17 -4 28q0 68 90 68q76 0 128 -69q24 -33 24 -71q0 -32 -19 -67q-12 -279 -90 -552
q-26 -87 -48 -144q-20 -198 -130 -306q-142 -138 -506 -186q-323 0 -477 165q-117 124 -117 257q0 30 8 31q-10 43 -10 78q0 76 38 153q21 41 43 78l116 476l68 23l69 -90l49 -193l-110 -443l-94 -43l77 -73q-3 -18 -3 -34q0 -41 33 -75q24 -18 70 -56z" />
    <glyph glyph-name="V" unicode="V" horiz-adv-x="1316" 
d="M1139 1244l110 -6l-33 34zM265 67q-143 115 -178 493q-13 135 -17 321l-5 181l-38 132l127 78l100 5l-6 -88l-49 5l49 -55q-11 -30 -11 -140q0 -113 14 -258l-42 28l56 -143q42 -294 110 -339l66 200q12 64 121 229l106 102l-72 -33q201 279 350 399l93 38l-50 10
q123 69 230 69q52 0 53 -35l137 -49l-83 -12l-16 -25q-43 -70 -114 -122q-42 -31 -102 -51q-102 -62 -188 -177q-34 -45 -55 -67q-165 -171 -233 -391q-21 -66 -38 -195l-23 -166l-154 27l-94 -38z" />
    <glyph glyph-name="W" unicode="W" horiz-adv-x="1687" 
d="M1625 1205l46 -5q5 -83 10 -83l100 61l-183 -360q-26 -68 -75 -145q-114 -182 -217 -219q-45 -42 -93 -120q-111 -178 -123 -323l-55 45v-56h-183l100 56l-51 21l73 100l-45 38q-178 81 -178 483q0 42 1 87l-144 -77l95 17q-83 -52 -112 -72q-106 -69 -158 -133
q-39 -63 -52 -83q-122 -208 -137 -343l-55 -94l-78 -5l-77 43l-39 -33q148 264 148 478q0 116 -43 219q30 113 30 199q0 190 -140 232l149 67h105l61 -67l-46 -55l34 -38l-34 -200l46 -43l22 -139l287 243l133 332l72 -22l-22 -60l44 -12l83 105l193 -6l-165 -226
q-23 -71 -23 -164q0 -92 23 -187q32 -126 87 -158l45 133q43 -19 51 -23q18 0 39 28q42 65 57 89l57 88l193 260q62 81 85 109q37 49 46 69z" />
    <glyph glyph-name="X" unicode="X" horiz-adv-x="1344" 
d="M560 809q-105 162 -216 222q-73 40 -167 48l-154 99l15 78l-38 93l287 -66l305 -233q21 -3 39 -43q22 -47 42 -72q118 122 273 249l94 38l232 44l133 17l-78 -78q-92 -152 -232 -198q-94 -60 -254 -211q118 -98 255 -256q52 -60 88 -103l38 -94l127 -320l-132 -51l-12 84
l-27 17q-125 81 -171 214q-79 129 -315 360q-5 -3 -6 -6q-35 -36 -112 -86q-92 -60 -119 -82q-135 -112 -151 -296l-122 -177l23 89l-106 -66l-10 43l-66 -49l76 270l233 305q0 52 143 162q58 44 85 55z" />
    <glyph glyph-name="Y" unicode="Y" horiz-adv-x="1316" 
d="M270 205q-55 -71 -55 -167l61 39zM248 1189l-49 5l49 -55q-3 -7 -3 -15q0 -39 82 -82q89 -34 257 -119l47 27q29 43 115 78q129 52 138 57q66 39 66 94q0 3 -4 5l93 38l-50 10q123 69 230 69q52 0 53 -35l137 -49l-83 -12l-16 -25q-43 -70 -114 -122q-42 -31 -102 -51
q-101 -62 -188 -177q-34 -46 -55 -67q-241 -251 -271 -586q-14 -162 -149 -162q-44 0 -105 18l-166 -71q-6 14 -6 36q0 123 166 466l116 -15l-88 88q71 121 133 193q-278 88 -367 207q-43 58 -49 125l-38 132l127 78l100 5z" />
    <glyph glyph-name="Z" unicode="Z" horiz-adv-x="1424" 
d="M961 343l178 -17l-16 45h-48q-14 0 -114 -28zM166 1092l-55 102l61 117l38 -55q226 1 327 5q185 7 326 25q61 8 140 23q29 4 114 24l144 39l199 5l66 -121q0 -26 -26.5 -60.5t-52.5 -34.5q-30 0 -60 50q-75 -100 -140 -159q-107 -99 -213 -106q-55 -79 -163 -131
q-56 -26 -213 -102q-36 -17 -122 -68l-39 63l-32 -107q-168 -110 -227 -196q-29 -40 -29 -64q0 -12 6 -21l44 -27l144 22q690 104 756 104q117 0 117 -45q0 -33 -67 -115l-76 -93l161 44l-28 -72l-1197 -82l-235 -56l110 155l33 60l56 111l-61 -49l66 110q36 122 251 301
q81 68 204 152q63 44 198 122l453 216l-426 -50l-82 -38z" />
    <glyph glyph-name="bracketleft" unicode="[" horiz-adv-x="753" 
d="M643 356l-68 -265l-506 -35l-235 -56l204 161l-38 16l14 78l-42 22l66 110l128 705l-55 -47l-17 78l17 71l110 117l-11 -55q288 3 502 16q10 1 34 1q61 0 61 -23q0 -20 -71 -82q-34 -30 -34 -37q3 -3 16 -3l-221 -38l-110 22l-11 -123q0 -3 -2 -9q0 -40 68 -45l-72 -12
l-77 -486q-5 0 -73 -83l45 -39q34 6 111 14l160 15q86 9 107 12z" />
    <glyph glyph-name="backslash" unicode="\" horiz-adv-x="1301" 
d="M719 896l66 -56q38 -31 145 -124q102 -95 254 -279l38 -94l127 -320l-132 -51l-12 84l-27 17q-125 81 -171 214q-60 98 -171 216q-37 40 -195 194q-36 36 -85 112q-57 88 -83 119q-114 138 -296 151l-154 99l15 78l-38 93l287 -66l305 -233q17 -3 37 -40q18 -31 36 -63
q17 -27 54 -51z" />
    <glyph glyph-name="bracketright" unicode="]" horiz-adv-x="881" 
d="M620 56q-131 0 -340 -24l-165 -20q-78 -9 -115 -12l44 249l67 -66l221 38l111 -22l11 122l82 553q6 0 73 83l-45 38q-43 -6 -111 -13l-160 -15q-71 -6 -106 -12l67 265l507 36l69 -122l-15 -78l42 -22l-66 -110l-127 -705l-33 -31z" />
    <glyph glyph-name="asciicircum" unicode="^" horiz-adv-x="1015" 
d="M50 974l474 220l493 -271l-100 -49v-83l-403 171l-421 -144l12 138z" />
    <glyph glyph-name="underscore" unicode="_" horiz-adv-x="1359" 
d="M-16 -38l-11 82l116 39l78 -33l-34 39l327 33l431 -6l337 -45q0 -6 -44 -88l-210 28q-8 -2 -53 -2q-103 0 -154 2h-50l-257 6z" />
    <glyph glyph-name="grave" unicode="`" horiz-adv-x="300" 
d="M150 1198l99 -169l-249 171l-38 92l11 93l50 17q0 25 20 25q23 0 61 -24q40 -25 40 -45z" />
    <glyph glyph-name="a" unicode="a" horiz-adv-x="1261" 
d="M880 526q22 39 38 125q13 74 13 131q0 40 -6 63l-363 -306zM925 1022v35l141 -71q49 59 95 59q14 0 24 -6l-8 -353l-25 -181q-9 -58 -31 -210q-19 -131 -19 -206q0 -43 45 -43q15 0 34 3l-88 -93q-8 -3 -17 -3q-30 0 -52 48q-10 21 -13 21t-7 -9q-34 -16 -56 -16
q-55 0 -55 113q0 41 9 123q8 59 32 196l-107 -44l27 49q-28 6 -47 6q-35 0 -79 -5l-79 -8q-21 -2 -180 -7l-168 -154l-173 -258l-75 -4l-53 45q0 64 101 195q65 83 152 172q105 106 176 159q92 150 249 288q152 134 247 159z" />
    <glyph glyph-name="b" unicode="b" horiz-adv-x="1432" 
d="M233 166l741 100q8 11 84 35q69 22 69 37q0 33 -320 71q-293 35 -393 35q-112 0 -121 -37zM434 836l-12 -42q-30 -104 -30 -139q0 -18 10 -18l-16 -35l-59 -54l75 45l89 9h29q288 0 404 95q72 59 76 108l-217 26q-121 14 -221 14q-78 0 -128 -9zM719 461l38 33
q74 6 153 6q199 0 334 -39q123 -35 123 -72q-28 -63 -168 -135q-98 -49 -206 -86q-369 -124 -877 -124h-60l-113 -13l-44 36l101 75l133 732l-84 -7l22 168l88 -8l151 -54q151 32 263 32q174 0 321 -76q72 4 127 8l91 7q111 8 174 8q138 0 152 -41q-50 -172 -287 -288
q-176 -87 -404 -125z" />
    <glyph glyph-name="c" unicode="c" horiz-adv-x="1366" 
d="M846 805l-18 35q-91 36 -142 36q-21 0 -55 -8q-40 -8 -55 -10q-139 -13 -210 -91q-83 -91 -162 -360l27 -88l-53 -23l53 -22q118 -118 283 -118q26 0 53 3q61 -12 117 -12q123 0 180 55l317 249l4 -44l63 -12l18 -36l102 30l-368 -300q-32 -27 -103 -48
q-132 -40 -327 -40q-173 0 -308 30q-75 16 -131 55q-98 68 -124 196q-11 58 -11 128q0 20 2 53q2 43 3 54q3 87 52 175q107 193 270 233q127 102 312 102q131 0 246 -58l89 44l-58 -226q1 -28 1 -41q0 -170 -64 -247q-28 -33 -53 -33q-40 0 -40 71q0 100 90 268z" />
    <glyph glyph-name="d" unicode="d" horiz-adv-x="1385" 
d="M-56 31l57 111l46 258l28 -73l-7 188l52 290l-57 31l17 128l80 63q52 -58 119 -58q12 0 32 4q146 32 262 32q194 0 321 -76q264 -63 363 -219q42 -65 70 -155q11 -38 41 -166q-28 -65 -206 -163q-191 -105 -350 -109q-151 -49 -336 -65q-110 -11 -261 -11q-63 0 -159 3z
M939 746q-41 35 -120 66q-126 50 -290 50q-65 0 -112 -8q-40 -7 -54 -129q-6 -60 -13 -79l-48 -146l-107 -13l98 -80l-60 -241l175 6q152 6 359 73q108 36 183 80q118 71 118 146q0 10 -1 16q-12 115 -51 176l-77 49l31 9z" />
    <glyph glyph-name="e" unicode="e" horiz-adv-x="1139" 
d="M791 632l53 -22l-17 36zM760 655l80 22l58 -62l-49 -62l-62 -12l-279 -54q-9 -2 -20 -2q-55 0 -55 53q0 12 6.5 35t6.5 33q-4 0 -28 -15l-38 -25l-35 -217q-5 0 -58 -66l35 -31q471 83 605 83q93 0 93 -36q0 -27 -53 -92l-61 -74l129 35l-23 -58l-957 -66l-188 -44
l163 128l-30 14l11 62l-34 17l53 89l102 564l-44 -38l-13 62l13 57l89 94l-9 -45q180 2 261 5q148 5 261 20q49 6 112 18q23 4 91 19l115 31l160 5l53 -98q0 -25 -42 -81q-17 -21 -32 -21q-25 0 -37 67q0 -4 -121 -18l-74 -9l-341 -40l-66 -30l-88 17l-9 -98q-1 -4 -1 -7
q0 -32 54 -36l-57 -9l-10 -45l45 5l62 13q21 14 51 29q9 4 24 4q51 0 181 -90z" />
    <glyph glyph-name="f" unicode="f" horiz-adv-x="1140" 
d="M390 748l9 -54l44 5l62 13q21 14 51 29q8 4 24 4q51 0 182 -90l137 -40l-49 -62l-62 -12l-278 -54q-26 5 -45 5q-15 0 -26 -1q-14 0 -58 75l-53 -283q16 24 25 24q7 0 7 -14q0 -67 -65 -171q-68 -108 -166 -122l-181 -26l53 168l30 106l-52 -27l52 89l49 270l177 106
l-155 13l31 175l-43 -38l-15 62l15 57l88 94l-9 -45q180 2 261 5q148 5 261 20q49 6 112 18q23 4 91 19l115 31l160 5l53 -98q0 -25 -42 -81q-16 -21 -31 -21q-26 0 -38 67q0 -4 -121 -18l-74 -9l-340 -40l-66 -30l-89 17z" />
    <glyph glyph-name="g" unicode="g" horiz-adv-x="1140" 
d="M238 270q42 -66 216 -119q71 -23 107 -23h51l62 -1h9q64 0 95 19l131 83l68 138q-8 27 -99 39q-56 7 -115 7q-131 0 -215 -28l31 66l-45 84q104 12 183 12q204 0 319 -72q65 -41 95 -112l-66 -244l-256 -456l-18 81l-128 -67l186 248l75 8l-49 32l23 78
q-121 -36 -286 -36q-287 0 -423 126q-48 26 -93 86q-68 94 -68 227q0 89 31 179q31 93 87 158q52 61 105 71q32 83 201 146q157 60 295 60q51 0 80 -11l17 -40l40 -36l-49 -22l40 -40l-292 18q-70 -6 -159 -68q-94 -67 -106 -131q-122 -104 -122 -271q0 -93 42 -189z" />
    <glyph glyph-name="h" unicode="h" horiz-adv-x="1140" 
d="M855 555q-143 -71 -150 -77h-344l-62 61q0 -57 -8 -57l-40 3l-5 -21l-79 -52l74 -32l-88 -345l-197 -57l67 283q34 77 34 205v35q0 90 23 127l93 381l54 18v-72l112 -4l44 80l53 -62l-107 -155l-47 -200l502 -21l78 30l6 27q37 0 45 87q4 36 4 64l26 256q-2 14 -2 23
q0 54 64 54q60 0 102 -55q19 -26 19 -57q0 -25 -16 -53q-3 -98 -26 -145q-19 -37 -19 -93q0 -9 2 -41l-62 -438q-13 -93 -66 -169q-57 -80 -105 -80q-63 0 -67 116l26 195z" />
    <glyph glyph-name="i" unicode="i" horiz-adv-x="457" 
d="M119 655q6 36 11 170q1 29 3 49l35 130l310 53l-18 -75q3 -6 3 -14q0 -24 -36 -126l-49 -138q-19 -53 -19 -138l-76 -566l-212 26l-71 -26l31 128z" />
    <glyph glyph-name="j" unicode="j" horiz-adv-x="1146" 
d="M21 380l63 235q21 -44 26 -44l67 31l71 -18l-45 -231q-3 -16 -3 -27q0 -33 27 -60q19 -14 56 -45q0 -10 -17 -16q-21 -8 -26 -12q-10 -12 -10 -34l70 31q54 -34 126 -34q21 0 38 3q103 10 157 33q116 50 156 148q15 36 25 76l58 234q36 0 45 87q3 36 3 64l26 256
q-2 14 -2 23q0 54 72 54q61 0 102 -55q19 -26 19 -57q0 -25 -15 -53q-10 -224 -73 -442q-20 -69 -38 -115q-15 -159 -103 -245q-114 -110 -405 -149q-259 0 -383 133q-92 99 -92 205q0 24 5 24z" />
    <glyph glyph-name="k" unicode="k" horiz-adv-x="971" 
d="M912 0l-45 -67l-61 -17l-53 40l22 79l-18 146q7 15 7 36q-8 87 -99 149q-50 35 -123 41q-25 3 -78 17q-104 -54 -185 -54q-24 0 -59 6l-71 -354l-193 -44l67 283q34 77 34 205v35q0 90 23 127l93 381l54 18l39 -72l82 -57l-84 -376q35 -18 82 -18q96 0 259 147
q162 171 261 317l33 -79l40 22l31 -18q-170 -234 -337 -364q120 -9 199 -118q86 -119 86 -314q0 -41 -6 -97zM798 -44l43 -9l40 45z" />
    <glyph glyph-name="l" unicode="l" horiz-adv-x="1033" 
d="M442 1075l-7 -53l-50 -40l44 4l-18 -195q-8 -34 -138 -34h-12l146 -18l-62 -390q-5 0 -58 -66l35 -31q471 83 605 83q93 0 93 -36q0 -27 -53 -92l-61 -74l129 35l-23 -58l-957 -66l-188 -44l163 128l-30 14l11 62l-34 17l53 89l102 564l-44 -38l-13 62l13 57l89 94
l-9 -45q16 -3 42 -3q59 0 122 20q69 20 110 54z" />
    <glyph glyph-name="m" unicode="m" horiz-adv-x="1521" 
d="M589 916l66 18l31 17l-27 13q-4 0 -20.5 -5t-18.5 -8q-5 -5 -14 -15zM1013 606q15 17 45 36l50 32q44 29 46 60q88 110 88 165q0 32 -30 48l62 66l62 5l62 -36l40 -18l-26 -128l-32 -40l-13 -186q-1 -12 -20 -201q-13 -128 -13 -198q0 -116 77 -140l-102 -71h-189l61 106
q27 19 27 106q0 32 -4 91l-5 82l-9 181l-189 -234q-71 -88 -204 -221l-4 -5q-37 -36 -107 -88l-217 -5l195 190q-57 32 -78 140q-11 52 -11 106q0 80 18 162l-168 -204l-36 -18l9 -22l-219 -306q-42 -59 -42 -61l-84 -14l-53 63l146 310l110 137l-11 43q60 101 182 252
q149 187 210 209l93 -18l39 -53q4 -41 4 -82q0 -95 -15 -229l-13 -115q-6 -51 -6 -86q0 -93 44 -103l137 182q15 19 32 34q6 5 21 18l124 18z" />
    <glyph glyph-name="n" unicode="n" horiz-adv-x="1151" 
d="M1067 690l-62 -438q-51 -19 -79 -71q-25 -47 -25 -105q0 -38 11 -76l-137 119l-26 62q3 7 3 12q0 50 -105 157q-120 104 -166 104q-99 46 -151 171q-25 60 -25 121q0 29 6 55l-21 8l-84 -353l-39 -44l25 -30l-84 -369l-152 -35l67 283q34 77 34 205v35q0 90 23 127
l93 381l54 18l39 -72l49 -4l44 80l53 -62q-4 -31 -4 -59q0 -207 147 -341q105 -97 248 -153l57 234q37 0 45 87q4 36 4 64l26 256q-2 14 -2 23q0 54 72 54q60 0 102 -55q19 -26 19 -57q0 -25 -16 -53q-3 -98 -26 -145q-19 -37 -19 -93q0 -9 2 -41z" />
    <glyph glyph-name="o" unicode="o" horiz-adv-x="1409" 
d="M131 86q-98 68 -124 196q-11 58 -11 128q0 20 2 53q2 40 3 54q3 124 103 254q107 139 242 149q59 72 185 96q59 11 123 11q192 0 342 -76q253 -58 312 -224q22 -61 34 -168q16 -128 26 -170q-39 -90 -163 -203q-149 -137 -302 -142q-150 -47 -330 -47q-69 0 -151 8
q-205 23 -291 81zM567 159q196 7 321 50q222 77 222 215v4l-3 32q-6 54 -16 114q-8 50 -37 94l-115 44l66 13l-66 21q-22 7 -79 44q-25 16 -41 22l-87 33q-54 20 -90 20q-33 0 -66 -7q-75 -8 -118 -25q-101 -40 -173 -197q-38 -83 -81 -229l27 -88l-53 -23l48 -22
q35 -16 126 -58q124 -57 211 -57h4z" />
    <glyph glyph-name="p" unicode="p" horiz-adv-x="1342" 
d="M435 836l-13 -42q-30 -104 -30 -139q0 -18 11 -18l-18 -35l-57 -54l75 45l89 9h28q288 0 404 95q72 59 76 108l-216 26q-123 14 -222 14q-78 0 -127 -9zM748 498q-48 -43 -198 -65q-82 -12 -139 -17l-118 -9l-44 27l30 -45l-97 -371l-88 -67l-164 -40l49 111l-9 71l9 75
l40 13l150 703l-71 -22l40 151l66 -13l106 -27q151 32 263 32q174 0 321 -76q73 4 127 8l90 7q113 8 175 8q139 0 152 -41q-51 -172 -287 -288q-176 -87 -403 -125z" />
    <glyph glyph-name="q" unicode="q" horiz-adv-x="1414" 
d="M981 56q-41 -11 -78 -12q-150 -47 -330 -47q-164 0 -311 34q-216 49 -255 251q-11 58 -11 128q0 20 2 53q2 40 3 54q3 124 103 254q107 139 242 149q59 72 185 96q59 11 123 11q192 0 342 -76q253 -58 312 -224q22 -61 34 -168q16 -128 26 -170q-26 -57 -107 -146
q-45 -49 -87 -84l132 -283l-77 -4q-22 -22 -23 -27l-9 -26zM1051 300q59 59 59 129q-1 5 -3 31q-6 54 -16 114q-8 50 -37 94l-115 44l66 13l-66 21q-22 7 -79 44q-25 16 -41 22l-87 33q-54 20 -90 20q-33 0 -66 -7q-75 -8 -118 -25q-101 -40 -173 -197q-38 -83 -81 -229
l27 -88l-53 -23l48 -22q35 -16 126 -58q124 -57 211 -57h4q169 5 297 43l-78 54l-18 76l20 80l60 -32l11 44l25 -17l16 44l165 -106l-25 -44z" />
    <glyph glyph-name="r" unicode="r" horiz-adv-x="1219" 
d="M292 562l199 4q114 3 238 53q151 61 191 150q12 28 14 40q-195 27 -390 27q-11 0 -33 6t-33 6q-18 0 -44 -12q-59 -35 -71 -102q-22 -124 -71 -172zM1305 -168l-217 106h-115l-22 172l-17 -57l-72 124l-48 -18q-20 125 -65 193q-57 88 -165 108q-24 -6 -54 -8l-81 -7
q-103 -10 -157 -33l9 79q-6 3 -12 3q-31 0 -50 -143q-4 -37 -18 -170l-124 -278l-4 48l-49 -22l35 71l-79 -18q42 121 83 266q15 54 15 117q0 48 -14 86q-5 12 -5 30q0 90 109 309q43 87 73 135l-22 75l66 9l141 -45h156q17 0 50 1.5t49 1.5q121 0 254 -19q199 -28 217 -86
q0 -215 -224 -315q-74 -33 -165 -47q68 -26 98 -100q12 -32 24 -44q15 -16 47 -16q8 0 12 1q69 -174 187 -331q66 -89 154 -178z" />
    <glyph glyph-name="s" unicode="s" horiz-adv-x="1435" 
d="M523 947l531 -9q58 33 148 33q95 0 146 -30q24 -14 24 -31q0 -15 -22 -30q77 -117 77 -162q0 -46 -63 -46q-43 0 -90 14q-55 15 -98 40q-34 19 -34 45q0 19 17 38q28 14 28 33q0 18 -24 18q-15 0 -35 -10h-455q-119 0 -210 -59q-45 -28 -73 -79l-67 -119l309 -22l69 3
q50 3 128 4q40 2 82 2q180 0 282 -24q182 -42 196 -162l-67 -182q-60 -81 -180 -132q-112 -47 -221 -47q-62 0 -125 16q-97 -23 -303 -23q-195 0 -329 19q-69 9 -97 22l-102 110l-9 49l-49 4q68 12 101 41q17 15 17 32q0 20 -25 42l-26 8q0 26 21 26q46 0 62 -105l32 -53
q6 -34 50 -34h1q4 0 17 1l15 1q18 1 27 1l685 -9q-7 -11 -7 -19q0 -15 22 -15q15 0 35 8l163 111l53 83q10 24 10 46q0 52 -45 52q-27 0 -61 -23l-749 18q-113 48 -113 165q0 67 35 136q37 72 92 107l101 61z" />
    <glyph glyph-name="t" unicode="t" horiz-adv-x="1160" 
d="M1061 964q-12 -4 -54 -9q-25 -3 -91 -13l-275 -53q4 -75 4 -114q0 -114 -38 -241q-22 -73 -63 -181l31 10q-10 -113 -105 -218q-98 -108 -209 -119l-133 -57l142 708l181 110l-159 9l13 111l-44 -31l-133 -9l-128 67l-18 52l53 14l27 -23q138 30 386 30q85 0 154 -3
q53 35 143 56q80 19 153 19q78 0 120 -22q16 55 100 55q56 0 125 -28l-53 -31q-4 -52 -72 -77q-30 -12 -57 -12z" />
    <glyph glyph-name="u" unicode="u" horiz-adv-x="1146" 
d="M299 221q0 -10 -17 -16q-21 -8 -26 -12q-11 -12 -11 -34l71 31q54 -34 126 -34q22 0 38 3q79 10 133 33q116 50 156 148q15 36 25 76l66 234q36 0 45 87q3 36 3 64l27 256q-3 14 -3 23q0 54 71 54q62 0 103 -55q19 -26 19 -57q0 -25 -15 -53q-9 -224 -72 -442
q-21 -69 -39 -115q-15 -159 -104 -245q-113 -110 -405 -149q-258 0 -381 133q-93 99 -93 205q0 24 6 24q-8 35 -8 63q0 61 31 122q16 33 34 63l93 381l54 18l55 -72l39 -154l-88 -355l-75 -34l62 -59q-3 -14 -3 -27q0 -33 27 -60q19 -14 56 -45z" />
    <glyph glyph-name="v" unicode="v" horiz-adv-x="1053" 
d="M911 995l88 -4l-26 27zM212 53q-114 92 -142 395q-10 108 -14 256l-3 146l-31 105l101 63l80 4l-4 -71l-40 4l40 -44q-9 -24 -9 -112q0 -90 11 -206l-33 22l44 -115q34 -234 88 -270l53 159q10 51 97 183l85 83l-58 -27q161 223 280 319l74 30l-39 9q98 54 183 54
q42 0 43 -27l110 -40l-67 -9l-12 -20q-35 -56 -92 -98q-33 -25 -81 -41q-82 -49 -151 -141q-27 -36 -44 -54q-132 -137 -186 -312q-17 -53 -31 -156l-18 -134l-123 23l-75 -31z" />
    <glyph glyph-name="w" unicode="w" horiz-adv-x="1350" 
d="M1300 964l37 -4q4 -67 8 -67l80 49l-147 -287q-21 -55 -60 -117q-91 -146 -174 -175q-35 -34 -74 -96q-89 -142 -98 -259l-44 36v-44h-147l80 44l-41 18l59 80l-36 30q-143 64 -143 387q0 33 2 69l-116 -62l76 14q-66 -42 -89 -57q-85 -56 -127 -107q-31 -51 -41 -67
q-98 -166 -110 -274l-44 -75l-62 -4l-62 35l-31 -27q118 211 118 382q0 93 -34 176q24 90 24 159q0 152 -112 186l119 53h84l49 -53l-37 -45l27 -30l-27 -160l37 -35l17 -111l230 195l106 265l58 -17l-17 -49l34 -9l67 84l155 -4l-133 -182q-18 -56 -18 -131q0 -73 19 -149
q25 -101 69 -127l36 107q35 -16 41 -19q15 0 31 23q34 52 46 71l46 71l154 207q50 65 68 88q30 39 37 55z" />
    <glyph glyph-name="x" unicode="x" horiz-adv-x="1075" 
d="M448 647q-84 129 -173 178q-58 32 -133 38l-124 79l13 62l-31 75l230 -52l243 -187q17 -2 32 -35q17 -37 33 -57q95 97 219 199l75 30l186 36l106 14l-63 -63q-73 -122 -185 -159q-75 -47 -203 -168q94 -79 204 -205q42 -48 70 -83l30 -75l102 -256l-106 -40l-9 66
l-21 14q-101 65 -138 172q-63 103 -252 288l-5 -5q-27 -29 -89 -69q-73 -48 -95 -65q-108 -90 -121 -237l-97 -142l18 71l-85 -53l-8 35l-53 -40l61 217l187 243q0 42 114 130q46 35 68 44z" />
    <glyph glyph-name="y" unicode="y" horiz-adv-x="1053" 
d="M216 164q-44 -57 -44 -133l49 31zM199 951l-40 4l40 -44q-2 -6 -2 -12q0 -31 65 -66q71 -27 206 -95l37 22q23 34 92 62q103 42 111 46q53 31 53 75q0 3 -4 4l74 30l-39 9q98 54 183 54q42 0 43 -27l110 -40l-67 -9l-12 -20q-35 -56 -92 -98q-33 -25 -81 -41
q-81 -49 -151 -141q-27 -37 -44 -54q-193 -200 -217 -468q-11 -130 -119 -130q-35 0 -84 14l-133 -57q-5 12 -5 29q0 99 133 373l93 -12l-70 71q56 96 106 154q-223 71 -293 165q-35 47 -39 101l-31 105l101 63l80 4z" />
    <glyph glyph-name="z" unicode="z" horiz-adv-x="1139" 
d="M769 274l142 -13l-13 35h-39q-10 0 -90 -22zM132 874l-44 81l49 94l31 -45q180 2 261 5q148 5 261 20q49 6 112 18q23 4 91 19l115 31l160 5l53 -98q0 -20 -21.5 -47.5t-41.5 -27.5q-24 0 -48 40q-61 -80 -113 -128q-85 -78 -170 -84q-44 -63 -131 -105q-44 -21 -170 -81
q-28 -14 -97 -55l-32 50l-25 -85q-135 -89 -182 -157q-23 -32 -23 -52q0 -9 5 -16l35 -21l115 17q552 83 605 83q93 0 93 -36q0 -27 -53 -92l-61 -74l129 35l-23 -58l-957 -66l-188 -44l88 124l27 48l44 89l-49 -40l53 89q29 97 201 240q65 55 163 122q50 35 159 97l362 173
l-341 -40l-66 -30z" />
    <glyph glyph-name="braceleft" unicode="{" horiz-adv-x="1300" 
d="M915 1040l10 -15q50 -50 75 -100q50 40 60 315q-1 46 -8 122q-21 -115 -137 -322zM925 875l-315 -65l25 -175q40 15 190 115q50 25 100 125zM1060 650q0 -90 -52 -150h-4q0 75 -15 136q10 17 71 49v-35zM974 548v-4q0 -70 -37 -100h-3v11q0 51 -23 115q0 4 48 48
q15 0 15 -70zM900 477v-29q0 -44 -29 -78h-4q-6 53 -30 107q14 27 48 67q15 0 15 -67zM48 1362q-7 -76 -8 -122q10 -275 60 -315q25 50 75 100l10 15q-116 207 -137 322zM275 750q150 -100 190 -115l25 175l-315 65q50 -100 100 -125zM40 685q61 -32 71 -49
q-15 -61 -15 -136h-3q-53 60 -53 150v35zM141 618q48 -44 48 -48q-22 -64 -22 -115v-11h-4q-37 30 -37 100v4q0 70 15 70zM215 544q34 -40 48 -67q-24 -54 -30 -107h-4q-29 34 -29 78v29q0 67 15 67zM624 1200q51 0 138.5 -25t122.5 -60q7 7 180 335h10q25 -250 25 -450v-49
q0 -126 -25 -176q-100 -50 -125 -75q-125 -100 -160 -210q35 -165 35 -239v-26q0 -100 -36 -215l-14 -10q0 275 -50 300q-25 25 -175 26q-150 -1 -175 -26q-50 -25 -50 -300l-14 10q-36 115 -36 215v26q0 74 35 239q-35 110 -160 210q-25 25 -125 75q-25 50 -25 176v49
q0 200 25 450h10q173 -328 180 -335q35 35 122.5 60t138.5 25h148z" />
    <glyph glyph-name="bar" unicode="|" horiz-adv-x="603" 
d="M150 818q8 51 13 213q0 33 3 61l100 457l381 94l-71 -415q3 -8 3 -17q0 -30 -45 -159l-61 -171q-24 -67 -24 -173l-166 -94l144 -11l-133 -918l-382 -83l89 216l38 343z" />
    <glyph glyph-name="braceright" unicode="}" horiz-adv-x="1400" 
d="M1127 1394q16 -46 63 -79q0 -9 -63 -27q-37 0 -63 -56q-29 0 -56 36v16q52 76 111 114zM1089 1085q61 -160 61 -285v-15q0 -35 -25 -85q-100 -150 -175 -160h-25q-85 0 -150 60q-75 100 -76 175l11 25q114 25 140 50q151 150 239 235zM760 765q56 -165 140 -175l24 1
q61 0 126 69l-15 14q-40 -23 -75 -24l-35 1q-75 9 -165 114zM1087 537q-44 -67 -126 -166h-4q-8 34 -8 87v40l4 8q87 21 130 39zM81 1398q59 -38 111 -114v-16q-27 -36 -56 -36q-26 56 -63 56q-63 18 -63 27q47 33 63 79zM350 850q26 -25 140 -50l11 -25q-1 -75 -76 -175
q-65 -60 -150 -60h-25q-75 10 -175 160q-25 50 -25 85v15q0 125 61 285q88 -85 239 -235zM275 651l-35 -1q-35 1 -75 24l-15 -14q65 -69 126 -69l24 -1q84 10 140 175q-90 -105 -165 -114zM117 545q43 -18 130 -39l4 -8v-40q0 -53 -8 -87h-4q-82 99 -126 166zM676 1250
q24 0 24 25t-25 26h-150q-25 -1 -25 -26t24 -25h152zM600 1453q187 0 301 -93q-76 -210 -126 -320q0 -15 25 -15q15 25 75 185l25 -10l65 60l70 -70l-10 -5q-65 -25 -65 -45q0 -26 30 -56l10 -9q-75 -74 -200 -210q-140 -40 -140 -54q0 -47 15 -111q35 -125 225 -225
q10 -15 14 -176l-3 -15l-70 42q-1 74 -2 109l-24 25l-15 -1q-65 -84 -100 -84q-10 -125 -11 -160q-65 -40 -79 -215h-20q-14 175 -79 215q-1 35 -11 160q-35 0 -100 84l-15 1l-24 -25q-1 -35 -2 -109l-70 -42l-3 15q4 161 14 176q190 100 225 225q15 64 15 111q0 14 -140 54
q-125 136 -200 210l10 9q30 30 30 56q0 20 -65 45l-10 5l70 70l65 -60l25 10q60 -160 75 -185q25 0 25 15q-50 110 -126 320q114 93 301 93zM676 950q24 0 24 25t-25 26h-150q-25 -1 -25 -26t24 -25h152zM676 1050q24 0 24 25t-25 26h-150q-25 -1 -25 -26t24 -25h152z
M676 1149q24 0 24 25t-25 26h-150q-25 -1 -25 -26t24 -25h152z" />
    <glyph glyph-name="asciitilde" unicode="~" horiz-adv-x="1101" 
d="M692 941q-176 102 -308 102q-93 0 -165 -54q-29 -22 -33 -22q-7 0 -9 12l-194 111q38 86 190 136q122 41 240 41q104 0 157 -34q17 0 27 -94q64 -9 119 -9q161 0 237 66q38 33 59 76l139 -160q-58 -137 -239 -168q-55 -9 -117 -9q-49 0 -103 6z" />
    <glyph glyph-name="exclamdown" unicode="&#xa1;" horiz-adv-x="520" 
d="M369 1306q32 27 73 27q75 0 75 -80q0 -15 -4 -36l10 -88l-10 -94l-50 -17q0 -24 -21 -24q-22 0 -60 24q-40 25 -41 45l-5 160zM137 758l274 18l-49 -228l-48 30q20 -15 20 -117q0 -152 -29 -265q-13 -51 -30 -65l61 41l-77 -182l-266 27l51 261l154 43l-123 116z" />
    <glyph glyph-name="cent" unicode="&#xa2;" horiz-adv-x="1687" 
d="M504 194l82 221l255 459l83 -89l-77 150l89 66l-12 72q-90 35 -112 35q-8 0 -25 -10q-21 -12 -24 -14q-19 -8 -43 -11q-90 -9 -147 -32q-127 -50 -217 -246q-47 -103 -101 -286l33 -111l-66 -27l66 -28q111 -110 216 -149zM996 1222l95 193q58 -33 106 -69q31 -24 31 -35
l-520 -1112q78 -15 147 -15q154 0 225 68l396 312l6 -55l78 -15l22 -45l128 38l-460 -376q-32 -26 -92 -55q-179 -83 -419 -83q-58 0 -113 5l-89 -255l-165 105l55 172q9 5 9 9q0 12 -68 23q-31 5 -41 6q-180 44 -260 169q-72 113 -72 305q0 24 2 66q3 49 4 69
q5 200 145 371q66 79 142 115q170 111 465 111q129 0 243 -22z" />
    <glyph glyph-name="sterling" unicode="&#xa3;" horiz-adv-x="1275" 
d="M1205 38q-143 87 -538 87q-429 0 -598 -69l-235 -56l128 100q102 79 102 109q0 31 -12.5 90t-13.5 88l44 236l-146 -5q21 67 27 72l-22 155q11 0 208 26l34 159q33 159 103 308q38 49 96 77q3 2 5 2q4 0 4 -11q0 -9 -1 -21q0 -19 13 -19q15 4 68 43q50 38 65 38
q198 -4 470 -181l-169 -151l-59 31q-60 31 -138 31q-11 1 -20 1q-80 0 -80 -59l-37 -243l140 8l122 16l-22 -88q-94 -43 -94 -50q0 -8 40 -23q14 -5 50 -19q21 -8 21 -13l-117 -50l-181 -43l-31 -177q-5 0 -72 -83l44 -39q14 -12 59 -12q41 0 169 18l183 26q48 8 124 8h12
q197 0 217 -106l127 -39z" />
    <glyph glyph-name="currency" unicode="&#xa4;" horiz-adv-x="761" 
d="M263 420q31 -30 74 -43q22 -6 44 -6t43 6q44 13 75 43q30 31 42 74q7 22 7 44t-7 43q-12 44 -42 75q-31 30 -75 42q-22 6 -44 6t-43 -6q-44 -13 -74 -42q-29 -30 -42 -74q-7 -22 -7 -45q0 -21 6 -42q12 -44 43 -75zM181 677l-89 89l60 61l89 -89q33 23 74 35q33 10 67 10
q30 0 62 -9q43 -13 76 -36l89 89l60 -61l-88 -88q23 -34 36 -76q9 -32 9 -64t-9 -64q-13 -42 -36 -76l88 -88l-60 -61l-89 89q-33 -24 -75 -36q-32 -9 -64 -9t-64 9q-43 12 -76 36l-89 -89l-60 61l89 88q-24 34 -36 77q-9 31 -9 63q0 33 9 65q12 41 36 74z" />
    <glyph glyph-name="yen" unicode="&#xa5;" horiz-adv-x="1316" 
d="M623 391l90 7h182v-72l-28 -78l6 -76l-297 -22q-22 -134 -145 -134q-46 0 -105 17l-166 -71q-6 14 -6 36q0 56 38 168h-4l-132 16l27 205l197 -6l40 83l116 -15l-88 88q5 10 17 27l-211 6q-28 38 -28 44l12 99l5 28q35 4 228 28q-289 119 -306 293l-38 132l127 78l100 5
l-6 -88l-49 5l49 -55q-3 -7 -3 -15q0 -39 82 -82q89 -34 257 -119l47 27q29 43 115 78q129 52 138 57q66 39 66 94q0 3 -4 5l93 38l-50 10q123 69 230 69q52 0 53 -35l137 -49l-83 -12l-16 -25q-43 -70 -114 -122q-42 -31 -102 -51q-102 -62 -185 -174q-25 -34 -37 -48
q130 -17 162 -17l-39 -49v-78l-49 -50l-241 -21q-52 -87 -82 -179z" />
    <glyph glyph-name="brokenbar" unicode="&#xa6;" horiz-adv-x="603" 
d="M150 818q8 51 13 213q0 33 3 61l100 457l381 94l-71 -415q3 -8 3 -17q0 -30 -45 -159l-61 -171q-24 -67 -24 -173l-166 -94l144 -11l-133 -918l-382 -83l89 216l38 343z" />
    <glyph glyph-name="section" unicode="&#xa7;" horiz-adv-x="1794" 
d="M477 551l-96 2q-141 60 -141 205q0 84 44 171q46 90 115 133l126 77l129 45l663 -12q73 42 186 42q118 0 182 -38q31 -17 31 -38q0 -19 -28 -38q96 -146 96 -203t-79 -57q-53 0 -112 17q-69 19 -123 51q-42 24 -42 56q0 23 21 48q36 17 36 40t-30 23q-20 0 -45 -13h-569
q-148 0 -262 -73q-56 -36 -91 -99l-84 -149l134 -10q10 25 20 46q72 157 173 197q43 18 118 25q33 8 66 8q36 0 90 -21l87 -33q15 -6 41 -21q57 -38 79 -45l66 -21l-66 -12l114 -45q30 -44 38 -93v-1q73 -7 127 -20q228 -52 246 -203l-84 -226q-75 -102 -225 -166
q-140 -59 -276 -59q-78 0 -156 20q-122 -28 -380 -28q-244 0 -411 23q-86 12 -121 27l-128 138l-11 61l-61 5q86 15 127 52q20 19 20 40q0 25 -31 52l-33 11q0 31 27 31q57 0 78 -130l39 -66q9 -44 63 -44h2q4 0 20 2l20 1q22 2 33 2l857 -11q-9 -14 -9 -24q0 -19 27 -19
q19 0 43 10l205 138l66 105q13 30 13 57q0 65 -57 65q-5 0 -11 -1q-5 -133 -222 -208q-126 -43 -321 -50h-4q-87 0 -212 57q-90 42 -125 59l-49 21l54 23l-27 88v3zM1214 583l-9 100q-10 40 -117 117q-59 27 -92 27l-105 2q-71 0 -104 -23l-91 -60l-39 -127q0 -32 41 -71
q50 -77 161 -77h89q171 0 266 112z" />
    <glyph glyph-name="dieresis" unicode="&#xa8;" horiz-adv-x="979" 
d="M532 1322q-30 -28 -72 -28q-76 0 -76 80q0 16 4 36l-11 89l11 93l50 18q0 24 20 24q24 0 61 -23q40 -25 40 -46l6 -160zM1016 1322q-31 -28 -73 -28q-75 0 -75 80q0 16 4 36l-12 89l12 93l49 18q0 24 21 24q23 0 61 -23q39 -25 39 -46l6 -160z" />
    <glyph glyph-name="copyright" unicode="&#xa9;" horiz-adv-x="1761" 
d="M164 107q-123 86 -155 246q-14 72 -14 159q0 25 2 66q3 51 4 69q4 154 129 317q134 174 302 187q74 89 231 119q75 14 155 14q239 0 427 -95q317 -73 390 -281q27 -75 43 -209q20 -160 32 -212q-49 -113 -204 -254q-186 -172 -377 -177q-187 -60 -413 -60q-86 0 -188 11
q-257 28 -364 100zM1236 521l-231 -189q-67 -55 -267 -55q-104 0 -195 19q-166 37 -166 237q0 29 4 67q0 105 105 200q48 43 96 54q81 66 195 66q82 0 154 -38l56 28l-36 -141v-25q0 -108 -39 -155q-18 -20 -33 -20q-26 0 -26 44q0 63 56 167l-11 22q-57 22 -89 22
q-14 0 -41 -6q-7 0 -28 -5q-86 -8 -131 -57q-53 -57 -101 -225l17 -55l-34 -14l34 -13q73 -75 177 -75q15 0 33 3q41 -9 73 -9q77 0 113 35l198 156l228 216q-14 34 -30 60l-144 55l84 17l-84 26q-27 8 -98 55q-31 19 -52 27l-108 41q-67 26 -112 26q-41 0 -83 -9
q-94 -10 -147 -32q-127 -50 -217 -246q-47 -103 -101 -286l33 -111l-66 -27l61 -28q44 -20 157 -73q155 -71 264 -71h4q246 8 402 62q278 97 278 276q0 20 -5 38q0 37 -6 78l-83 -12l39 -21z" />
    <glyph glyph-name="ordfeminine" unicode="&#xaa;" horiz-adv-x="545" 
d="M363 1047q21 32 21 105q0 17 -3 26l-149 -126zM381 1251v14l59 -28q20 24 39 24q5 0 10 -2l-4 -147l-19 -123q-11 -73 -11 -123q0 -18 18 -18q5 1 15 2l-37 -38q-5 -2 -8 -2q-6 0 -26 29q-2 -2 -2 -4q-15 -7 -23 -7q-24 0 -24 47q0 42 18 132l-45 -18l12 20q-12 2 -19 2
q-65 -7 -141 -8l-68 -64l-72 -106l-31 -1l-22 18q0 45 103 149q43 44 74 68q29 48 89 106q69 66 115 78z" />
    <glyph glyph-name="guillemotleft" unicode="&#xab;" horiz-adv-x="1125" 
d="M524 653v-232l-491 281l304 150l50 -12l6 51l204 132l-39 -232l-193 -78zM614 719l476 304l-34 -216l-249 -133l-5 -88q67 67 71 67l171 -56l-37 -204z" />
    <glyph glyph-name="logicalnot" unicode="&#xac;" horiz-adv-x="760" 
d="M65 575h630v-368l-1 -1h-73v294h-556v75z" />
    <glyph glyph-name="registered" unicode="&#xae;" horiz-adv-x="1761" 
d="M164 107q-123 86 -155 246q-14 72 -14 159q0 25 2 66q3 51 4 69q4 154 129 317q134 174 302 187q74 89 231 119q75 14 155 14q239 0 427 -95q317 -73 390 -281q27 -75 43 -209q20 -160 32 -212q-49 -113 -204 -254q-186 -172 -377 -177q-187 -60 -413 -60q-86 0 -188 11
q-257 28 -364 100zM530 628l124 3q98 3 177 46q94 51 99 106q-143 17 -243 17q-8 0 -21.5 3t-20.5 3q-11 0 -27 -6q-12 0 -28 -26q-14 -22 -17 -38q-12 -77 -43 -108zM1118 264q184 62 243 174q27 50 27 92v6q-1 0 -5 39q-6 67 -19 143q-11 62 -47 117l-144 55l84 17l-84 26
q-27 8 -98 55q-31 19 -52 27l-108 41q-67 26 -112 26q-41 0 -83 -9q-94 -10 -147 -32q-127 -50 -217 -246q-47 -103 -101 -286l33 -111l-66 -27l61 -28q18 -8 72 -34l35 96q19 56 19 99q0 28 -10 55q-3 6 -3 18q0 43 44 142q36 81 70 135l-15 48l42 6l89 -28h96q11 0 32 0.5
t32 0.5q153 0 246 -33q42 -15 48 -32q0 -120 -112 -183q-54 -31 -133 -43q43 -16 63 -60q18 -40 50 -40q32 -79 74 -125q27 -30 96 -101zM963 225l-21 122l-12 -37l-44 78l-31 -11q-24 165 -143 187q-33 -4 -127 -14q-25 -2 -55 -16l4 50q-3 2 -6 2q-21 0 -33 -90
q-2 -29 -10 -106l-47 -121q162 -70 266 -70h4q134 3 255 26z" />
    <glyph glyph-name="macron" unicode="&#xaf;" horiz-adv-x="1145" 
d="M-16 1205l-11 84l116 38l78 -33l-34 39l327 33l431 -6l337 -44q0 -7 -44 -89l-210 28q-8 -2 -53 -2q-43 0 -204 3l-257 5z" />
    <glyph glyph-name="degree" unicode="&#xb0;" horiz-adv-x="625" 
d="M176 842q-110 24 -110 156q0 23 2 45q0 75 72 135q33 28 71 31q36 44 128 44q80 0 140 -31q104 -24 129 -91q10 -30 15 -70q8 -63 9 -71q-23 -51 -79 -94q-59 -46 -113 -48q-61 -19 -136 -19q-68 0 -128 13zM302 895q77 3 135 22q90 30 90 90q0 5 -3 12q-11 69 -21 86
l-48 19l28 5l-28 8q-16 11 -49 27q-57 23 -73 23q-4 -1 -28 -3q-75 -9 -109 -71q-22 -39 -44 -115l12 -36l-23 -10l20 -9q15 -7 54 -25q50 -23 85 -23h2z" />
    <glyph glyph-name="plusminus" unicode="&#xb1;" horiz-adv-x="1139" 
d="M1133 779l-116 -209l-298 33l-39 -28l-17 66l-6 -111l-54 -148l-183 73l-77 -51l110 193h-293q-13 -4 -72 -27l38 66l-38 33q50 72 50 95q0 7 -9 12q-5 3 -6 6q0 7 9 20l365 -16l95 270l170 -82l84 82l-16 -43q-16 -44 -31 -83l-58 -156zM93 243l100 144l288 -33h243
l293 11l-39 -99l11 -56z" />
    <glyph glyph-name="uni00B2" unicode="&#xb2;" horiz-adv-x="393" 
d="M234 1132q-88 0 -143 -47q-22 -18 -29 -39l212 -3q-2 -5 -2 -8q0 -6 6 -6q4 0 11 3l41 -40l17 -39q-35 37 -81 37q-10 0 -20 -1q-27 -9 -94 -9q-102 0 -132 15l-20 44q20 92 169 136q65 0 97 7q36 8 88 42q16 11 16 26v2q0 21 -30 62l-135 5q-63 0 -84 -57q-16 -9 -28 -9
q-20 0 -20 21q0 24 25 45l33 25l30 14l165 -3q23 4 38 4q30 0 44 -18q3 -4 9 -10q5 -8 5 -21q0 -47 -37 -106q-41 -65 -83 -65q-5 0 -15 3zM98 1269l-12 15q-3 -1 -3 -5q0 -14 15 -14q2 0 2 1z" />
    <glyph glyph-name="uni00B3" unicode="&#xb3;" horiz-adv-x="401" 
d="M209 1319l-53 3q-28 15 -54 15q-9 0 -18 -2q2 2 13 11l29 27l36 -15l165 -3q20 15 44 15q47 0 47 -36v-3q-2 -32 -52 -83q-16 -16 -25 -23q-2 -3 -18 -20q102 -9 107 -75l-20 -74q-48 -88 -127 -88q-16 0 -33 6q-13 -6 -43 -6q-135 0 -206 34l-37 17l37 -7l22 34l33 28
l7 -11l60 -17l152 -3q-3 -5 -3 -8q0 -6 7 -6q4 0 10 3l52 45l15 35q3 6 3 10q0 22 -24 22q-3 0 -8 -1l-75 2l-73 26l50 31l22 18l17 -6l-5 17l81 69l6 19h-141zM56 1058l-19 -12l34 3z" />
    <glyph glyph-name="acute" unicode="&#xb4;" horiz-adv-x="140" 
d="M-27 1103q98 36 98 71q0 29 -81 29h-17l-11 89l11 93l50 17q0 25 20 25q22 0 61 -24q39 -25 40 -45l5 -160l-32 -83l-255 -150z" />
    <glyph glyph-name="mu" unicode="&#xb5;" horiz-adv-x="1091" 
d="M20 328q-3 19 -3 30q0 22 7 22q-9 36 -9 63q0 75 66 186l93 380l53 19l40 -73l39 -154l-89 -355l-74 -34l61 -59q-3 -14 -3 -27q0 -33 27 -60q20 -14 56 -45q0 -9 -17 -15q-21 -9 -25 -13q-11 -12 -11 -34l71 31q54 -34 125 -34q12 0 29 2l10 1q121 11 173 33
q115 50 156 149q15 39 24 75l58 234q37 0 45 87q4 38 4 64l26 257q-3 13 -3 22q0 54 56 54q62 0 102 -55q20 -25 20 -57q0 -25 -16 -53q-9 -225 -72 -442q-19 -66 -38 -115q-16 -159 -104 -244q-113 -111 -405 -150q-236 0 -360 111l-15 -72l-98 -61l83 18l-57 -186l-52 -9
l-112 -40z" />
    <glyph glyph-name="paragraph" unicode="&#xb6;" horiz-adv-x="852" 
d="M331 530q-233 317 -233 483q0 152 150 209l233 89l338 -12l-51 -188l34 -33l-128 6l99 -50l-71 -519l-56 -288l-76 -17l61 -72l-129 11l51 354l-90 17z" />
    <glyph glyph-name="periodcentered" unicode="&#xb7;" horiz-adv-x="279" 
d="M117 354q-32 -28 -73 -28q-75 0 -75 81q0 15 4 35l-11 88l11 94l50 17q0 24 20 24q23 0 61 -23q40 -25 40 -45l6 -160z" />
    <glyph glyph-name="periodcentered" unicode="&#x2219;" horiz-adv-x="279" 
d="M117 354q-32 -28 -73 -28q-75 0 -75 81q0 15 4 35l-11 88l11 94l50 17q0 24 20 24q23 0 61 -23q40 -25 40 -45l6 -160z" />
    <glyph glyph-name="cedilla" unicode="&#xb8;" horiz-adv-x="635" 
d="M421 8l25 -69q3 -33 3 -57q0 -225 -220 -280q-95 -23 -204 -23h-38l111 111q12 6 69 22q44 13 59 25q24 19 24 57q0 41 -19 90l-45 118z" />
    <glyph glyph-name="uni00B9" unicode="&#xb9;" horiz-adv-x="213" 
d="M37 1238q1 25 4 90l11 54l96 22l-5 -31q-1 -6 -27 -116q-5 -25 -5 -55l-23 -234l-66 11l-22 -11l10 54z" />
    <glyph glyph-name="ordmasculine" unicode="&#xba;" horiz-adv-x="595" 
d="M108 842q-110 24 -110 156q0 23 2 45q0 75 73 135q33 28 71 31q35 44 127 44q80 0 140 -31q105 -24 129 -91q10 -27 15 -70q8 -63 9 -71q-23 -52 -79 -95q-58 -45 -113 -47q-61 -19 -136 -19q-67 0 -128 13zM234 895q78 3 136 22q89 30 89 90q0 3 -2 12q-9 65 -21 86
l-48 19l27 5l-27 8q-17 11 -50 27q-57 23 -71 23q-2 0 -30 -3q-75 -9 -109 -71q-22 -39 -44 -115l12 -36l-22 -10l19 -9q15 -7 54 -25q51 -23 85 -23h2z" />
    <glyph glyph-name="guillemotright" unicode="&#xbb;" horiz-adv-x="1153" 
d="M651 730v232l492 -282l-305 -150l-49 12l-7 -51l-205 -132l40 233l194 77zM562 664l-476 -305l33 216l248 133l7 89q-64 -67 -72 -67l-171 55l38 204z" />
    <glyph glyph-name="onequarter" unicode="&#xbc;" horiz-adv-x="1316" 
d="M1272 1266l138 -49l-83 -12l-16 -25q-43 -70 -115 -122q-42 -31 -101 -51q-112 -68 -302 -258l-104 -102q-60 -56 -115 -92q-92 -60 -119 -82q-135 -113 -151 -296l-99 -154l-78 15l-94 -38l66 287l233 305q3 17 40 37q59 32 64 36q26 18 51 54l182 99l-127 -33
q124 172 404 399l94 38zM176 1100q0 30 3 90l12 54l96 21l-6 -30q-4 -17 -26 -117q-6 -26 -6 -55l-23 -233l-66 10l-22 -10l10 53zM887 64l23 163l25 23l-21 -8l3 26l-192 25l-33 62q80 0 156 64q49 63 65 79q45 46 85 46q23 0 29 -22l-24 -202l44 3l-18 -17l14 -53l-54 7
l-24 -120l-3 -60l-27 -24l-30 21q2 1 2 6h-1q-5 -3 -19 -19zM823 332l107 -7l11 102q-46 -74 -118 -95z" />
    <glyph glyph-name="onehalf" unicode="&#xbd;" horiz-adv-x="1316" 
d="M1272 1266l138 -49l-83 -12l-16 -25q-43 -70 -115 -122q-42 -31 -101 -51q-112 -68 -302 -258l-104 -102q-60 -56 -115 -92q-92 -60 -119 -82q-135 -113 -151 -296l-99 -154l-78 15l-94 -38l66 287l233 305q3 17 40 37q59 32 64 36q26 18 51 54l182 99l-127 -33
q124 172 404 399l94 38zM176 1100q0 30 3 90l12 54l96 21l-6 -30q-4 -17 -26 -117q-6 -26 -6 -55l-23 -233l-66 10l-22 -10l10 53zM926 233q-87 0 -144 -48q-22 -19 -30 -38l213 -3q-3 -5 -3 -8q0 -6 7 -6q5 0 11 3l42 -41l17 -38q-36 37 -83 37q-9 0 -18 -2q-27 -9 -94 -9
q-103 0 -132 17l-20 43q19 92 168 135q63 0 97 9q42 10 89 41q15 10 15 28q0 21 -30 62l-132 4h-4q-62 0 -83 -57q-15 -8 -27 -8q-21 0 -21 20q0 24 26 45l31 26l32 14l164 -4q23 5 38 5q30 0 45 -18q4 -6 9 -10q3 -8 3 -22q0 -46 -36 -105q-39 -66 -83 -66q-4 0 -14 3z
M790 370l-12 15q-5 -1 -5 -5q0 -14 17 -14q1 0 1 2z" />
    <glyph glyph-name="threequarters" unicode="&#xbe;" horiz-adv-x="1316" 
d="M1273 1266l138 -49l-83 -12l-16 -25q-44 -70 -115 -122q-42 -31 -101 -51q-112 -68 -302 -258l-105 -102q-60 -56 -114 -92q-92 -60 -119 -82q-136 -113 -151 -296l-99 -154l-78 15l-94 -38l66 287l233 305q3 17 40 37q59 32 64 36q26 18 51 54l182 99l-127 -33
q124 172 404 399l93 38zM887 64l24 163l24 23l-20 -8l3 26l-193 25l-33 62q81 0 157 64q49 63 65 79q45 46 84 46q24 0 30 -22l-24 -202l44 3l-18 -17l14 -53l-55 7l-23 -120l-4 -60l-26 -24l-31 21q3 1 3 6h-1q-5 -3 -20 -19zM824 332l107 -7l11 102q-46 -74 -118 -95z
M209 1180l-53 4q-28 15 -53 15q-10 0 -18 -2q3 2 13 11l28 27l36 -15l165 -3q20 15 44 15q47 0 47 -36v-3q-1 -33 -52 -83q-15 -15 -25 -23q-2 -4 -18 -20q102 -9 108 -75l-21 -75q-48 -87 -127 -87q-15 0 -32 5q-14 -5 -43 -5q-133 0 -207 34l-37 17l37 -7l23 34l32 27
l8 -10l59 -17l152 -3q-3 -5 -3 -9q0 -6 7 -6q4 0 11 4l51 45l15 35q3 6 3 9q0 23 -24 23q-3 0 -8 -2l-75 3l-73 25l51 31l21 19l18 -6l-6 16l81 70l6 18h-141zM56 920l-18 -12l33 2z" />
    <glyph glyph-name="questiondown" unicode="&#xbf;" horiz-adv-x="1746" 
d="M863 622q78 70 343 94q71 6 226 19l55 -33l-39 56l275 17l-49 -227l-286 10l-94 -55l-110 -11h-36q-360 0 -506 -119q-86 -71 -94 -135q46 -6 123 -6q12 0 52 1q52 1 89 2l37 1q74 1 104 1q204 0 302 -38q41 -16 139 -26q40 -5 147 -16q51 -6 51 -15q-2 -2 -5 -4l89 28
l-51 -188l-83 17l-132 33q-188 -40 -328 -40q-216 0 -402 95l-275 -18q-131 -10 -215 -10q-172 0 -190 49q54 177 270 313q234 147 593 205zM1681 1305q31 28 72 28q76 0 76 -81q0 -15 -4 -35l10 -89l-10 -94l-50 -17q0 -24 -21 -24t-60 24q-40 25 -41 45l-5 160z" />
    <glyph glyph-name="Agrave" unicode="&#xc0;" horiz-adv-x="1567" 
d="M1100 658q28 49 48 156q16 92 16 164q0 50 -8 78l-454 -382zM1156 1277v45l177 -89q61 74 118 74q18 0 30 -8l-10 -442l-31 -225q-11 -73 -39 -263q-24 -164 -24 -258q0 -54 57 -54q18 0 42 4l-110 -116q-10 -3 -21 -3q-37 0 -65 59q-12 26 -16 26t-8 -10
q-44 -21 -71 -21q-68 0 -68 141q0 52 11 155q9 73 39 244l-133 -54l33 60q-34 8 -58 8q-44 0 -99 -6l-99 -10q-26 -3 -225 -9l-210 -193l-215 -321l-95 -6l-66 56q0 80 127 244q80 104 190 215q130 133 219 199q116 187 312 360q189 168 308 198zM1255 1474l100 -169
l-249 171l-39 92l11 93l50 17q0 25 20 25q24 0 61 -24q40 -24 41 -45z" />
    <glyph glyph-name="Aacute" unicode="&#xc1;" horiz-adv-x="1567" 
d="M1100 658q28 49 48 156q16 92 16 164q0 50 -8 78l-454 -382zM1156 1277v45l177 -89q61 74 118 74q18 0 30 -8l-10 -442l-31 -225q-11 -73 -39 -263q-24 -164 -24 -258q0 -54 57 -54q18 0 42 4l-110 -116q-10 -3 -21 -3q-37 0 -65 59q-12 26 -16 26t-8 -10
q-44 -21 -71 -21q-68 0 -68 141q0 52 11 155q9 73 39 244l-133 -54l33 60q-34 8 -58 8q-44 0 -99 -6l-99 -10q-26 -3 -225 -9l-210 -193l-215 -321l-95 -6l-66 56q0 80 127 244q80 104 190 215q130 133 219 199q116 187 312 360q189 168 308 198zM1217 1518q97 35 97 71
q0 28 -81 28h-16l-12 89l12 93l49 18q0 24 20 24q25 0 61 -23q40 -25 41 -46l6 -160l-34 -83l-254 -149z" />
    <glyph glyph-name="Acircumflex" unicode="&#xc2;" horiz-adv-x="1567" 
d="M1100 658q28 49 48 156q16 92 16 164q0 50 -8 78l-454 -382zM1156 1277v45l177 -89q61 74 118 74q18 0 30 -8l-10 -442l-31 -225q-11 -73 -39 -263q-24 -164 -24 -258q0 -54 57 -54q18 0 42 4l-110 -116q-10 -3 -21 -3q-37 0 -65 59q-12 26 -16 26t-8 -10
q-44 -21 -71 -21q-68 0 -68 141q0 52 11 155q9 73 39 244l-133 -54l33 60q-34 8 -58 8q-44 0 -99 -6l-99 -10q-26 -3 -225 -9l-210 -193l-215 -321l-95 -6l-66 56q0 80 127 244q80 104 190 215q130 133 219 199q116 187 312 360q189 168 308 198zM533 1485l476 221l492 -271
l-100 -50v-83l-403 172l-421 -144l12 138z" />
    <glyph glyph-name="Atilde" unicode="&#xc3;" horiz-adv-x="1567" 
d="M1100 658q28 49 48 156q16 92 16 164q0 50 -8 78l-454 -382zM1156 1277v45l177 -89q61 74 118 74q18 0 30 -8l-10 -442l-31 -225q-11 -73 -39 -263q-24 -164 -24 -258q0 -54 57 -54q18 0 42 4l-110 -116q-10 -3 -21 -3q-37 0 -65 59q-12 26 -16 26t-8 -10
q-44 -21 -71 -21q-68 0 -68 141q0 52 11 155q9 73 39 244l-133 -54l33 60q-34 8 -58 8q-44 0 -99 -6l-99 -10q-26 -3 -225 -9l-210 -193l-215 -321l-95 -6l-66 56q0 80 127 244q80 104 190 215q130 133 219 199q116 187 312 360q189 168 308 198zM1106 1355
q-177 102 -308 102q-94 0 -164 -54q-31 -22 -35 -22q-6 0 -8 13l-193 110q36 86 189 136q122 42 240 42q105 0 157 -34q7 0 17 -47t11 -47q64 -9 118 -9q161 0 237 66q38 32 60 75l138 -160q-57 -135 -238 -167q-59 -10 -117 -10q-50 0 -104 6z" />
    <glyph glyph-name="Adieresis" unicode="&#xc4;" horiz-adv-x="1584" 
d="M1100 658q28 49 48 156q16 92 16 164q0 50 -8 78l-454 -382zM1085 1322q-31 -28 -72 -28q-76 0 -76 80q0 16 4 36l-11 89l11 93l50 18q0 24 20 24q24 0 61 -23q40 -25 40 -46l6 -160zM1481 1295l-10 -438l-31 -225q-11 -73 -39 -263q-24 -164 -24 -258q0 -54 57 -54
q18 0 42 4l-110 -116q-10 -3 -21 -3q-37 0 -65 59q-12 26 -16 26t-8 -10q-44 -21 -71 -21q-68 0 -68 141q0 52 11 155q9 73 39 244l-133 -54l33 60q-34 8 -58 8q-44 0 -99 -6l-99 -10q-26 -3 -225 -9l-210 -193l-215 -321l-95 -6l-66 56q0 80 127 244q80 104 190 215
q130 133 219 199q116 187 312 360q189 168 308 198v45l177 -89q59 71 115 74q-27 19 -27 67q0 16 3 36l-10 89l10 93l51 18q0 24 20 24q23 0 61.5 -24t39.5 -45l5 -160l-33 -83q-31 -28 -72 -28q-8 0 -15 1z" />
    <glyph glyph-name="Aring" unicode="&#xc5;" horiz-adv-x="1567" 
d="M1100 658q28 49 48 156q16 92 16 164q0 50 -8 78l-454 -382zM1156 1277v45l177 -89q61 74 118 74q18 0 30 -8l-10 -442l-31 -225q-11 -73 -39 -263q-24 -164 -24 -258q0 -54 57 -54q18 0 42 4l-110 -116q-10 -3 -21 -3q-37 0 -65 59q-12 26 -16 26t-8 -10
q-44 -21 -71 -21q-68 0 -68 141q0 52 11 155q9 73 39 244l-133 -54l33 60q-34 8 -58 8q-44 0 -99 -6l-99 -10q-26 -3 -225 -9l-210 -193l-215 -321l-95 -6l-66 56q0 80 127 244q80 104 190 215q130 133 219 199q116 187 312 360q189 168 308 198zM1361 1322q-31 -28 -72 -28
q-76 0 -76 80q0 16 4 36l-11 89l11 93l50 18q0 24 20 24q24 0 61 -23q40 -25 40 -46l6 -160z" />
    <glyph glyph-name="AE" unicode="&#xc6;" horiz-adv-x="1788" 
d="M826 658q20 48 35 157q13 98 13 163q0 50 -7 78l-340 -382zM1494 791l50 -28l-17 44zM881 56q-38 -25 -52 -25q-18 0 -18 38q0 33 32 244q23 152 32 223l-99 -54l24 60q-24 8 -42 8q-65 0 -159 -11q-125 -13 -159 -14l-158 -193l-161 -321l-71 -6l-50 56q0 103 149 331
q137 210 253 327q68 147 198 315q157 207 267 243v45l120 -66q158 1 226 4q145 8 224 26q66 16 152 47l108 39l149 5l50 -121q0 -33 -38 -101q-16 -28 -31 -28q-22 0 -35 84q0 -5 -182 -33l-319 -50l-62 -38l-84 22l-8 -123v-4q0 -47 50 -50l-54 -12l-9 -55l42 6l59 16
q51 42 70 42q48 0 170 -114l74 28l54 -77l-45 -77l-319 -84q-8 -2 -19 -2q-53 0 -53 67q0 14 6.5 42t6.5 43q-3 0 -25 -19l-36 -31l-34 -271q-7 -6 -22 -31l-32 -52l34 -39q441 104 566 104q87 0 87 -45q0 -30 -57 -126l-50 -82l121 44l-21 -72z" />
    <glyph glyph-name="Ccedilla" unicode="&#xc7;" horiz-adv-x="1710" 
d="M642 2q-179 6 -315 36q-93 21 -162 69q-124 87 -156 246q-14 72 -14 159q0 26 3 66q2 54 3 69q4 108 65 219q134 240 339 290q158 128 389 128q164 0 307 -73l111 55l-72 -282q2 -35 2 -51q0 -213 -81 -309q-35 -41 -65 -41q-51 0 -51 88q0 125 112 336l-22 43
q-114 45 -177 45q-26 0 -69 -10q-51 -10 -69 -12q-174 -17 -262 -114q-104 -114 -203 -450l33 -111l-66 -27l66 -28q148 -148 355 -148q32 0 66 4q77 -15 146 -15q154 0 225 68l397 312l5 -55l78 -15l23 -45l127 38l-459 -376q-30 -25 -92 -47q-115 -41 -283 -56l26 -69
q4 -33 4 -57q0 -225 -221 -280q-95 -23 -203 -23h-39l111 111q11 6 70 22q43 12 59 25q23 19 23 57q0 37 -19 90z" />
    <glyph glyph-name="Egrave" unicode="&#xc8;" horiz-adv-x="1424" 
d="M989 791l67 -28l-22 44zM951 818l99 28l73 -77l-61 -77l-78 -16l-348 -68q-12 -2 -26 -2q-69 0 -69 66q0 15 8.5 44t8.5 42q-5 0 -35 -19l-48 -31l-44 -271q-5 0 -72 -83l44 -39q588 104 756 104q117 0 117 -45q0 -33 -67 -115l-76 -93l161 44l-28 -72l-1197 -82
l-235 -56l204 161l-38 16l14 78l-42 22l66 110l128 705l-55 -47l-17 78l17 71l110 117l-11 -55q226 1 327 5q185 7 326 25q61 8 140 23q29 4 114 24l144 39l199 5l66 -121q0 -33 -52 -102q-21 -27 -39 -27q-32 0 -48 84q0 -4 -150 -22l-93 -11l-426 -50l-82 -38l-111 22
l-11 -123q-1 -5 -1 -9q0 -40 67 -45l-71 -12l-12 -55l56 6l78 16q25 18 63 36q11 6 30 6q64 0 227 -114zM840 1542l100 -169l-249 172l-39 92l11 93l49 17q0 25 21 25q23 0 60 -24q40 -24 41 -45z" />
    <glyph glyph-name="Eacute" unicode="&#xc9;" horiz-adv-x="1424" 
d="M989 791l67 -28l-22 44zM951 818l99 28l73 -77l-61 -77l-78 -16l-348 -68q-12 -2 -26 -2q-69 0 -69 66q0 15 8.5 44t8.5 42q-5 0 -35 -19l-48 -31l-44 -271q-5 0 -72 -83l44 -39q588 104 756 104q117 0 117 -45q0 -33 -67 -115l-76 -93l161 44l-28 -72l-1197 -82
l-235 -56l204 161l-38 16l14 78l-42 22l66 110l128 705l-55 -47l-17 78l17 71l110 117l-11 -55q226 1 327 5q185 7 326 25q61 8 140 23q29 4 114 24l144 39l199 5l66 -121q0 -33 -52 -102q-21 -27 -39 -27q-32 0 -48 84q0 -4 -150 -22l-93 -11l-426 -50l-82 -38l-111 22
l-11 -123q-1 -5 -1 -9q0 -40 67 -45l-71 -12l-12 -55l56 6l78 16q25 18 63 36q11 6 30 6q64 0 227 -114zM664 1518q97 35 97 71q0 28 -81 28h-16l-12 89l12 93l49 18q0 24 20 24q24 0 61 -24q40 -24 41 -45l5 -160l-33 -83l-254 -149z" />
    <glyph glyph-name="Ecircumflex" unicode="&#xca;" horiz-adv-x="1424" 
d="M989 791l67 -28l-22 44zM1263 1372l197 5l66 -121q0 -33 -52 -102q-21 -27 -39 -27q-32 0 -48 84q0 -4 -150 -22l-93 -11l-426 -50l-82 -38l-111 22l-11 -123q-1 -5 -1 -9q0 -40 67 -45l-71 -12l-12 -55l56 6l78 16q25 18 63 36q11 6 30 6q64 0 227 -114l99 28l73 -77
l-61 -77l-78 -16l-348 -68q-12 -2 -26 -2q-69 0 -69 66q0 15 8.5 44t8.5 42q-5 0 -35 -19l-48 -31l-44 -271q-5 0 -72 -83l44 -39q588 104 756 104q117 0 117 -45q0 -33 -67 -115l-76 -93l161 44l-28 -72l-1197 -82l-235 -56l204 161l-38 16l14 78l-42 22l66 110l128 705
l-55 -47l-17 78l17 71l110 117l-11 -55q226 1 327 5q185 7 326 25q61 8 140 23q29 4 114 24l144 39l-402 170l-420 -143l11 138l-56 17l476 221l492 -271l-99 -50v-82z" />
    <glyph glyph-name="Edieresis" unicode="&#xcb;" horiz-adv-x="1424" 
d="M989 791l67 -28l-22 44zM951 818l99 28l73 -77l-61 -77l-78 -16l-348 -68q-12 -2 -26 -2q-69 0 -69 66q0 15 8.5 44t8.5 42q-5 0 -35 -19l-48 -31l-44 -271q-5 0 -72 -83l44 -39q588 104 756 104q117 0 117 -45q0 -33 -67 -115l-76 -93l161 44l-28 -72l-1197 -82
l-235 -56l204 161l-38 16l14 78l-42 22l66 110l128 705l-55 -47l-17 78l17 71l110 117l-11 -55q226 1 327 5q185 7 326 25q61 8 140 23q29 4 114 24l144 39l199 5l66 -121q0 -33 -52 -102q-21 -27 -39 -27q-32 0 -48 84q0 -4 -150 -22l-93 -11l-426 -50l-82 -38l-111 22
l-11 -123q-1 -5 -1 -9q0 -40 67 -45l-71 -12l-12 -55l56 6l78 16q25 18 63 36q11 6 30 6q64 0 227 -114zM601 1370q-31 -27 -72 -27q-76 0 -76 80q0 16 4 36l-11 88l11 94l50 17q0 24 20 24q23 0 60 -23q41 -25 41 -46l6 -159zM1084 1370q-31 -27 -72 -27q-76 0 -76 80
q0 16 4 36l-11 88l11 94l50 17q0 24 20 24q23 0 61 -23q40 -25 40 -46l6 -159z" />
    <glyph glyph-name="Igrave" unicode="&#xcc;" horiz-adv-x="584" 
d="M523 1309l74 13l-22 -94q3 -8 3 -17q0 -30 -45 -159l-60 -171q-24 -67 -24 -173l-95 -708l-265 33l-89 -33l38 161l111 657q8 45 13 213q2 36 4 61l44 164l310 53l-244 167l-38 92l10 93l51 17q0 25 20 25q24 0 61 -24q39 -24 40 -45l5 -160z" />
    <glyph glyph-name="Iacute" unicode="&#xcd;" horiz-adv-x="590" 
d="M149 818q8 45 13 213q2 36 4 61l44 164l387 66l-22 -94q3 -8 3 -17q0 -30 -45 -159l-60 -171q-24 -67 -24 -173l-95 -708l-265 33l-89 -33l38 161zM455 1518q99 35 99 71q0 28 -81 28h-18l-10 89l10 93l51 18q0 24 20 24q23 0 61 -24q39 -24 40 -45l5 -160l-33 -83
l-254 -149z" />
    <glyph glyph-name="Icircumflex" unicode="&#xce;" horiz-adv-x="755" 
d="M151 818q7 45 12 213q2 36 4 61l44 164l387 66l-21 -94q3 -8 3 -17q0 -30 -45 -159l-61 -171q-24 -67 -24 -173l-95 -708l-265 33l-89 -33l39 161zM-157 1485l476 221l492 -271l-99 -50v-83l-404 172l-421 -144l12 138z" />
    <glyph glyph-name="Idieresis" unicode="&#xcf;" horiz-adv-x="720" 
d="M149 818q8 45 13 213q2 36 4 61l44 164l387 66l-22 -94q3 -8 3 -17q0 -30 -45 -159l-60 -171q-24 -67 -24 -173l-95 -708l-265 33l-89 -33l38 161zM255 1370q-31 -27 -72 -27q-76 0 -76 80q0 16 4 36l-10 88l10 94l50 17q0 24 21 24q23 0 60 -22q40 -26 41 -47l5 -159z
M739 1370q-32 -27 -73 -27q-76 0 -76 80q0 16 5 36l-11 88l11 94l49 17q0 24 21 24q22 0 60 -22q40 -26 41 -47l6 -159z" />
    <glyph glyph-name="Eth" unicode="&#xd0;" horiz-adv-x="1731" 
d="M110 790l39 217l-71 38l22 160l100 78q65 -72 149 -72q15 0 39 6q183 39 328 39q243 0 402 -95q329 -78 453 -273q53 -82 87 -194q15 -47 51 -207q-34 -82 -257 -204q-239 -131 -439 -137q-187 -60 -418 -81q-137 -13 -327 -13q-80 0 -198 4l-140 -18l71 139l57 323
l36 -91l-7 180l-180 3l11 77l60 50q-4 0 -22 -4l-33 -7l12 94q26 -2 175 -12zM272 585l94 -76l-75 -302l219 8q190 7 448 92q134 44 229 100q148 88 148 182q0 13 -2 19q-14 144 -63 221l-97 61l39 11l-39 32q-51 43 -150 82q-157 62 -363 62q-81 0 -140 -10
q-49 -8 -66 -161q-8 -75 -17 -99l-13 -40q18 -1 97 -7l111 -8l-34 -44q-4 0 -25 -8t-31 -8l66 -39l-98 -72z" />
    <glyph glyph-name="Ntilde" unicode="&#xd1;" horiz-adv-x="1438" 
d="M1333 863l-77 -548q-63 -23 -98 -88q-32 -59 -32 -132q0 -47 14 -95l-171 149l-12 78q4 8 4 15q0 62 -153 195q-149 130 -207 130q-123 59 -189 214q-31 75 -31 152q0 35 7 68l-55 11l-106 -442l-49 -55l33 -38l-105 -460l-161 -45l83 354q44 97 44 256v44q0 113 28 159
l116 476l67 23l50 -90l61 -5l55 100l66 -78q-4 -39 -4 -74q0 -258 183 -426q132 -121 330 -191l72 293q45 0 56 108q4 45 4 80l33 321q-3 17 -3 28q0 68 70 68q76 0 128 -69q24 -33 24 -71q0 -32 -20 -67q-4 -123 -33 -181q-23 -46 -23 -116q0 -11 1 -51zM899 1403
q-175 102 -308 102q-92 0 -164 -54q-30 -21 -34 -21q-5 0 -8 12l-193 111q36 85 188 136q124 41 240 41q105 0 158 -33q7 0 17 -47l10 -47q64 -9 118 -9q161 0 238 66q38 32 58 75l139 -160q-58 -136 -237 -168q-55 -10 -118 -10q-50 0 -104 6z" />
    <glyph glyph-name="Ograve" unicode="&#xd2;" horiz-adv-x="1761" 
d="M979 1474l100 -169l-249 171l-38 92l10 93l50 17q0 25 21 25q23 0 60 -24q40 -24 41 -45zM164 107q-123 86 -155 246q-14 72 -14 159q0 25 2 66q3 51 4 69q4 154 129 317q134 174 302 187q74 89 231 119q75 14 155 14q239 0 427 -95q317 -73 390 -281q27 -75 43 -209
q20 -160 32 -212q-49 -113 -204 -254q-186 -172 -377 -177q-187 -60 -413 -60q-86 0 -188 11q-257 28 -364 100zM708 199q246 8 402 62q278 97 278 269v6q-1 0 -5 39q-6 67 -19 143q-11 62 -47 117l-144 55l84 17l-84 26q-27 8 -98 55q-31 19 -52 27l-108 41q-67 26 -112 26
q-41 0 -83 -9q-94 -10 -147 -32q-127 -50 -217 -246q-47 -103 -101 -286l33 -111l-66 -27l61 -28q44 -20 157 -73q155 -71 264 -71h4z" />
    <glyph glyph-name="Oacute" unicode="&#xd3;" horiz-adv-x="1743" 
d="M872 1518q97 35 97 71q0 28 -81 28h-16l-11 89l11 93l50 18q0 24 20 24q24 0 61 -24q40 -24 41 -45l5 -160l-33 -83l-255 -149zM164 107q-123 86 -155 246q-14 72 -14 159q0 25 2 66q3 51 4 69q4 154 129 317q134 174 302 187q74 89 231 119q75 14 155 14q239 0 427 -95
q317 -73 390 -281q27 -75 43 -209q20 -160 32 -212q-49 -113 -204 -254q-186 -172 -377 -177q-187 -60 -413 -60q-86 0 -188 11q-257 28 -364 100zM708 199q246 8 402 62q278 97 278 269v6q-1 0 -5 39q-6 67 -19 143q-11 62 -47 117l-144 55l84 17l-84 26q-27 8 -98 55
q-31 19 -52 27l-108 41q-67 26 -112 26q-41 0 -83 -9q-94 -10 -147 -32q-127 -50 -217 -246q-47 -103 -101 -286l33 -111l-66 -27l61 -28q44 -20 157 -73q155 -71 264 -71h4z" />
    <glyph glyph-name="Ocircumflex" unicode="&#xd4;" horiz-adv-x="1761" 
d="M534 1485l476 221l492 -271l-100 -50v-83l-403 172l-421 -144l12 138zM164 107q-123 86 -155 246q-14 72 -14 159q0 25 2 66q3 51 4 69q4 154 129 317q134 174 302 187q74 89 231 119q75 14 155 14q239 0 427 -95q317 -73 390 -281q27 -75 43 -209q20 -160 32 -212
q-49 -113 -204 -254q-186 -172 -377 -177q-187 -60 -413 -60q-86 0 -188 11q-257 28 -364 100zM708 199q246 8 402 62q278 97 278 269v6q-1 0 -5 39q-6 67 -19 143q-11 62 -47 117l-144 55l84 17l-84 26q-27 8 -98 55q-31 19 -52 27l-108 41q-67 26 -112 26q-41 0 -83 -9
q-94 -10 -147 -32q-127 -50 -217 -246q-47 -103 -101 -286l33 -111l-66 -27l61 -28q44 -20 157 -73q155 -71 264 -71h4z" />
    <glyph glyph-name="Otilde" unicode="&#xd5;" horiz-adv-x="1743" 
d="M1106 1355q-176 102 -307 102q-94 0 -165 -54q-30 -22 -34 -22q-6 0 -9 13l-192 110q36 86 188 136q123 42 240 42q105 0 158 -34q7 0 17 -47t11 -47q64 -9 118 -9q161 0 237 66q38 32 60 75l138 -160q-57 -135 -238 -167q-59 -10 -118 -10q-49 0 -104 6zM164 107
q-123 86 -155 246q-14 72 -14 159q0 25 2 66q3 51 4 69q4 154 129 317q134 174 302 187q74 89 231 119q75 14 155 14q239 0 427 -95q317 -73 390 -281q27 -75 43 -209q20 -160 32 -212q-49 -113 -204 -254q-186 -172 -377 -177q-187 -60 -413 -60q-86 0 -188 11
q-257 28 -364 100zM708 199q246 8 402 62q278 97 278 269v6q-1 0 -5 39q-6 67 -19 143q-11 62 -47 117l-144 55l84 17l-84 26q-27 8 -98 55q-31 19 -52 27l-108 41q-67 26 -112 26q-41 0 -83 -9q-94 -10 -147 -32q-127 -50 -217 -246q-47 -103 -101 -286l33 -111l-66 -27
l61 -28q44 -20 157 -73q155 -71 264 -71h4z" />
    <glyph glyph-name="Odieresis" unicode="&#xd6;" horiz-adv-x="1761" 
d="M672 1322q-33 -28 -73 -28q-75 0 -75 80q0 16 4 36l-12 89l12 93l50 18q0 24 20 24q23 0 62 -24t39 -45l5 -160zM1154 1322q-31 -28 -71 -28q-77 0 -77 80q0 16 4 36l-10 89l10 93l51 18q0 24 20 24q23 0 62 -24t39 -45l6 -160zM164 107q-123 86 -155 246q-14 72 -14 159
q0 25 2 66q3 51 4 69q4 154 129 317q134 174 302 187q74 89 231 119q75 14 155 14q239 0 427 -95q317 -73 390 -281q27 -75 43 -209q20 -160 32 -212q-49 -113 -204 -254q-186 -172 -377 -177q-187 -60 -413 -60q-86 0 -188 11q-257 28 -364 100zM708 199q246 8 402 62
q278 97 278 269v6q-1 0 -5 39q-6 67 -19 143q-11 62 -47 117l-144 55l84 17l-84 26q-27 8 -98 55q-31 19 -52 27l-108 41q-67 26 -112 26q-41 0 -83 -9q-94 -10 -147 -32q-127 -50 -217 -246q-47 -103 -101 -286l33 -111l-66 -27l61 -28q44 -20 157 -73q155 -71 264 -71h4z
" />
    <glyph glyph-name="multiply" unicode="&#xd7;" horiz-adv-x="1107" 
d="M718 623l283 -297l-78 -27l61 -39l-50 -17h-66v-38l-335 259l-318 -265l-38 22q-9 -1 -56 -11l-10 105l276 262l-55 43l66 93l-88 -44l-227 287l44 78l78 -27l10 60l72 6l296 -309l63 60l28 -11l17 55l149 194l78 -73q2 -2 14 -2q17 0 41 2l-111 -198q-6 -7 -61 -70z" />
    <glyph glyph-name="Oslash" unicode="&#xd8;" horiz-adv-x="1746" 
d="M1261 1184l23 27l110 39l-94 -6l116 150q3 -3 56 -33l88 -50l-5 -106q-13 -16 -91 -101q153 -91 194 -269q13 -57 26 -174t26 -174q-49 -113 -204 -254q-186 -172 -377 -177q-185 -60 -413 -60q-125 0 -281 23l-132 -112q-5 -5 -20 -18l-111 -33l11 116l-77 -5l116 107
q-227 106 -227 438q0 25 2 66q3 51 4 69q4 154 129 317q134 174 302 187q74 89 231 119q75 14 155 14q239 0 427 -95q12 -3 16 -5zM1084 982q-33 23 -61 33l-108 41q-67 26 -112 26q-41 0 -83 -9q-94 -10 -147 -32q-127 -50 -217 -246q-47 -103 -101 -286l33 -111l-66 -27
l61 -28q16 -7 57 -26l50 -25q9 -5 44 -20l292 270l170 194l46 33l10 61zM647 202q31 -3 53 -3h8q466 16 616 188q64 74 64 143v6q-1 0 -5 39q-6 67 -19 143q-11 62 -47 117l-78 30q-13 -14 -38 -41l-88 -33l66 -12l-88 -132l-317 -315l-132 -6l95 -44q-13 -13 -90 -80z" />
    <glyph glyph-name="Ugrave" unicode="&#xd9;" horiz-adv-x="1432" 
d="M701 1474l100 -169l-249 171l-38 92l10 93l50 17q0 25 21 25q23 0 60 -24q41 -24 41 -45zM373 277q0 -13 -21 -20q-26 -10 -32 -16q-14 -15 -14 -42l89 39q67 -43 157 -43q27 0 48 4q98 13 166 41q145 62 195 185q19 45 31 95l82 293q46 0 56 108q5 45 5 80l33 321
q-4 17 -4 28q0 68 90 68q76 0 128 -69q24 -33 24 -71q0 -32 -19 -67q-12 -279 -90 -552q-26 -87 -48 -144q-20 -198 -130 -306q-142 -138 -506 -186q-323 0 -477 165q-117 124 -117 257q0 30 8 31q-10 43 -10 78q0 76 38 153q21 41 43 78l116 476l68 23l69 -90l49 -193
l-110 -443l-94 -43l77 -73q-3 -18 -3 -34q0 -41 33 -75q24 -18 70 -56z" />
    <glyph glyph-name="Uacute" unicode="&#xda;" horiz-adv-x="1432" 
d="M870 1518q97 35 97 71q0 28 -81 28h-16l-11 89l11 93l50 18q0 24 20 24q24 0 61 -24q40 -24 41 -45l5 -160l-33 -83l-255 -149zM373 277q0 -13 -21 -20q-26 -10 -32 -16q-14 -15 -14 -42l89 39q67 -43 157 -43q27 0 48 4q98 13 166 41q145 62 195 185q19 45 31 95l82 293
q46 0 56 108q5 45 5 80l33 321q-4 17 -4 28q0 68 90 68q76 0 128 -69q24 -33 24 -71q0 -32 -19 -67q-12 -279 -90 -552q-26 -87 -48 -144q-20 -198 -130 -306q-142 -138 -506 -186q-323 0 -477 165q-117 124 -117 257q0 30 8 31q-10 43 -10 78q0 76 38 153q21 41 43 78
l116 476l68 23l69 -90l49 -193l-110 -443l-94 -43l77 -73q-3 -18 -3 -34q0 -41 33 -75q24 -18 70 -56z" />
    <glyph glyph-name="Ucircumflex" unicode="&#xdb;" horiz-adv-x="1432" 
d="M256 1554l475 221l407 -225l-66 -21l30 -125l-404 172l-394 -135l8 96zM373 277q0 -13 -21 -20q-26 -10 -32 -16q-14 -15 -14 -42l89 39q67 -43 157 -43q27 0 48 4q98 13 166 41q145 62 195 185q19 45 31 95l82 293q46 0 56 108q5 45 5 80l33 321q-4 17 -4 28q0 68 90 68
q76 0 128 -69q24 -33 24 -71q0 -32 -19 -67q-12 -279 -90 -552q-26 -87 -48 -144q-20 -198 -130 -306q-142 -138 -506 -186q-323 0 -477 165q-117 124 -117 257q0 30 8 31q-10 43 -10 78q0 76 38 153q21 41 43 78l116 476l68 23l69 -90l49 -193l-110 -443l-94 -43l77 -73
q-3 -18 -3 -34q0 -41 33 -75q24 -18 70 -56z" />
    <glyph glyph-name="Udieresis" unicode="&#xdc;" horiz-adv-x="1432" 
d="M601 1322q-32 -28 -72 -28q-76 0 -76 80q0 16 4 36l-11 89l11 93l50 18q0 24 20 24q24 0 61 -23q40 -25 40 -46l6 -160zM1084 1322q-31 -28 -72 -28q-76 0 -76 80q0 16 4 36l-11 89l11 93l50 18q0 24 20 24q24 0 61 -23q40 -25 40 -46l6 -160zM373 277q0 -13 -21 -20
q-26 -10 -32 -16q-14 -15 -14 -42l89 39q67 -43 157 -43q27 0 48 4q98 13 166 41q145 62 195 185q19 45 31 95l82 293q46 0 56 108q5 45 5 80l33 321q-4 17 -4 28q0 68 90 68q76 0 128 -69q24 -33 24 -71q0 -32 -19 -67q-12 -279 -90 -552q-26 -87 -48 -144
q-20 -198 -130 -306q-142 -138 -506 -186q-323 0 -477 165q-117 124 -117 257q0 30 8 31q-10 43 -10 78q0 76 38 153q21 41 43 78l116 476l68 23l69 -90l49 -193l-110 -443l-94 -43l77 -73q-3 -18 -3 -34q0 -41 33 -75q24 -18 70 -56z" />
    <glyph glyph-name="Yacute" unicode="&#xdd;" horiz-adv-x="1316" 
d="M270 205q-55 -71 -55 -167l61 39zM248 1189l-49 5l49 -55q-3 -7 -3 -15q0 -39 82 -82q89 -34 257 -119l47 27q29 43 115 78q129 52 138 57q66 39 66 94q0 3 -4 5l93 38l-50 10q123 69 230 69q52 0 53 -35l137 -49l-83 -12l-16 -25q-43 -70 -114 -122q-42 -31 -102 -51
q-101 -62 -188 -177q-34 -46 -55 -67q-241 -251 -271 -586q-14 -162 -149 -162q-44 0 -105 18l-166 -71q-6 14 -6 36q0 123 166 466l116 -15l-88 88q71 121 133 193q-278 88 -367 207q-43 58 -49 125l-38 132l127 78l100 5zM802 1518q97 35 97 71q0 28 -80 28h-17l-11 89
l11 93l49 18q0 24 21 24q24 0 60 -24q40 -24 41 -45l5 -160l-32 -83l-255 -149z" />
    <glyph glyph-name="Thorn" unicode="&#xde;" horiz-adv-x="1147" 
d="M230 401l-87 -384l-198 -45l83 354q44 97 44 256v44q0 113 28 159l127 559l108 33l66 -88l-41 -244q82 145 218 145q8 0 26 -1q229 -26 273 -38q138 -41 202 -166q50 -97 50 -262v-4q0 -167 -63 -305q-71 -152 -206 -229q-118 -67 -253 -67q-87 0 -165 26
q-144 61 -189 149q-23 45 -23 108zM776 365q53 2 83 44q58 71 58 176q0 65 5 152q0 60 -39 109q-29 57 -85 95q-59 39 -121 39q-24 0 -43 -6q-57 -22 -138 -95l-61 45l34 -78l-61 -56q-38 -30 -38 -70q0 -14 19 -14l-23 -166q15 -119 34 -147q66 -85 179 -85q32 0 65 7
l89 -40l-61 45l94 11z" />
    <glyph glyph-name="germandbls" unicode="&#xdf;" horiz-adv-x="1790" 
d="M426 695l-13 -20l-38 -150q-7 -7 -9 -16l-20 -82l-112 -371q-44 -1 -89 -1q-50 0 -75 1l-140 -18l-56 45l127 94l166 915l37 52q77 52 184 73q188 39 328 39q218 0 402 -95q90 5 159 11l113 8q139 10 218 10q173 0 190 -51q-63 -215 -359 -360q-220 -109 -504 -156
l-36 -47l48 42q92 8 191 8q248 0 418 -49q153 -44 153 -90q-35 -80 -210 -170q-122 -61 -258 -107q-240 -81 -528 -120v60l-38 75l39 39l503 68q11 14 106 45q86 27 86 45q0 42 -399 90q-230 27 -364 37l-1 104l119 102q270 17 391 117q90 73 95 135l-270 32
q-153 17 -277 17q-98 0 -160 -11l-16 -53q-37 -129 -37 -174q0 -21 13 -21l-4 -9h-11l-53 -78l-25 -24z" />
    <glyph glyph-name="agrave" unicode="&#xe0;" horiz-adv-x="1253" 
d="M881 527q21 39 37 124q14 74 14 131q0 40 -7 63l-363 -306zM925 1022v36l142 -72q48 60 94 60q14 0 24 -6l-8 -354l-25 -180q-9 -59 -31 -210q-19 -132 -19 -207q0 -43 46 -43q14 0 33 3l-88 -93q-8 -2 -17 -2q-30 0 -51 47q-11 21 -14 21t-7 -8q-34 -17 -56 -17
q-55 0 -55 113q0 42 9 123q8 59 32 196l-107 -43l27 48q-27 6 -47 6q-34 0 -79 -5l-79 -7q-20 -3 -180 -8l-168 -154l-173 -258l-75 -3l-53 44q0 64 101 195q65 83 153 172q104 106 175 159q92 150 249 288q152 135 247 159zM1004 1179l80 -135l-200 137l-30 73l9 75l39 14
q0 19 17 19q19 0 49 -19q31 -18 32 -36z" />
    <glyph glyph-name="aacute" unicode="&#xe1;" horiz-adv-x="1253" 
d="M881 527q21 39 37 124q14 74 14 131q0 40 -7 63l-363 -306zM925 1022v36l142 -72q48 60 94 60q14 0 24 -6l-8 -354l-25 -180q-9 -59 -31 -210q-19 -132 -19 -207q0 -43 46 -43q14 0 33 3l-88 -93q-8 -2 -17 -2q-30 0 -51 47q-11 21 -14 21t-7 -8q-34 -17 -56 -17
q-55 0 -55 113q0 42 9 123q8 59 32 196l-107 -43l27 48q-27 6 -47 6q-34 0 -79 -5l-79 -7q-20 -3 -180 -8l-168 -154l-173 -258l-75 -3l-53 44q0 64 101 195q65 83 153 172q104 106 175 159q92 150 249 288q152 135 247 159zM974 1214q78 29 78 57q0 23 -66 23h-12l-9 70
l9 75l39 15q0 18 16 18q20 0 49 -18q31 -19 32 -36l5 -129l-27 -66l-204 -119z" />
    <glyph glyph-name="acircumflex" unicode="&#xe2;" horiz-adv-x="1253" 
d="M881 527q21 39 37 124q14 74 14 131q0 40 -7 63l-363 -306zM925 1022v36l142 -72q48 60 94 60q14 0 24 -6l-8 -354l-25 -180q-9 -59 -31 -210q-19 -132 -19 -207q0 -43 46 -43q14 0 33 3l-88 -93q-8 -2 -17 -2q-30 0 -51 47q-11 21 -14 21t-7 -8q-34 -17 -56 -17
q-55 0 -55 113q0 42 9 123q8 59 32 196l-107 -43l27 48q-27 6 -47 6q-34 0 -79 -5l-79 -7q-20 -3 -180 -8l-168 -154l-173 -258l-75 -3l-53 44q0 64 101 195q65 83 153 172q104 106 175 159q92 150 249 288q152 135 247 159zM427 1188l380 176l394 -216l-80 -39v-67
l-323 137l-337 -115l10 111z" />
    <glyph glyph-name="atilde" unicode="&#xe3;" horiz-adv-x="1253" 
d="M881 527q21 39 37 124q14 74 14 131q0 40 -7 63l-363 -306zM925 1022v36l142 -72q48 60 94 60q14 0 24 -6l-8 -354l-25 -180q-9 -59 -31 -210q-19 -132 -19 -207q0 -43 46 -43q14 0 33 3l-88 -93q-8 -2 -17 -2q-30 0 -51 47q-11 21 -14 21t-7 -8q-34 -17 -56 -17
q-55 0 -55 113q0 42 9 123q8 59 32 196l-107 -43l27 48q-27 6 -47 6q-34 0 -79 -5l-79 -7q-20 -3 -180 -8l-168 -154l-173 -258l-75 -3l-53 44q0 64 101 195q65 83 153 172q104 106 175 159q92 150 249 288q152 135 247 159zM884 1084q-141 82 -246 82q-75 0 -131 -43
q-25 -18 -28 -18q-4 0 -6 10l-155 88q29 69 152 110q97 33 192 33q84 0 126 -27q5 0 13 -37l8 -38q51 -8 96 -8q128 0 189 53q30 26 48 60l110 -128q-46 -109 -191 -133q-46 -9 -93 -9q-40 0 -84 5z" />
    <glyph glyph-name="adieresis" unicode="&#xe4;" horiz-adv-x="1268" 
d="M881 527q21 39 37 124q14 74 14 131q0 40 -7 63l-363 -306zM868 1058q-25 -23 -58 -23q-61 0 -61 65q0 12 4 28l-9 71l9 75l40 14q0 19 16 19q19 0 48 -18q33 -20 33 -37l4 -128zM1185 1036l-8 -350l-25 -180q-9 -59 -31 -210q-19 -132 -19 -207q0 -43 46 -43q14 0 33 3
l-88 -93q-8 -2 -17 -2q-30 0 -51 47q-11 21 -14 21t-7 -8q-34 -17 -56 -17q-55 0 -55 113q0 42 9 123q8 59 32 196l-107 -43l27 48q-27 6 -47 6q-34 0 -79 -5l-79 -7q-20 -3 -180 -8l-168 -154l-173 -258l-75 -3l-53 44q0 64 101 195q65 83 153 172q104 106 175 159
q92 150 249 288q152 135 247 159v36l142 -72q47 57 91 60q-22 15 -22 54q0 12 3 28l-8 71l8 75l41 14q0 19 16 19q18 0 49.5 -19t31.5 -36l4 -128l-26 -66q-26 -23 -59 -23q-6 0 -11 1z" />
    <glyph glyph-name="aring" unicode="&#xe5;" horiz-adv-x="1253" 
d="M881 527q21 39 37 124q14 74 14 131q0 40 -7 63l-363 -306zM925 1022v36l142 -72q48 60 94 60q14 0 24 -6l-8 -354l-25 -180q-9 -59 -31 -210q-19 -132 -19 -207q0 -43 46 -43q14 0 33 3l-88 -93q-8 -2 -17 -2q-30 0 -51 47q-11 21 -14 21t-7 -8q-34 -17 -56 -17
q-55 0 -55 113q0 42 9 123q8 59 32 196l-107 -43l27 48q-27 6 -47 6q-34 0 -79 -5l-79 -7q-20 -3 -180 -8l-168 -154l-173 -258l-75 -3l-53 44q0 64 101 195q65 83 153 172q104 106 175 159q92 150 249 288q152 135 247 159zM1088 1058q-24 -23 -57 -23q-60 0 -60 65
q0 12 3 28l-9 71l9 75l39 14q0 19 17 19q19 0 49 -18q31 -20 32 -37l4 -128z" />
    <glyph glyph-name="ae" unicode="&#xe6;" horiz-adv-x="1430" 
d="M661 527q16 38 28 126q10 78 10 129q0 40 -5 63l-272 -306zM1196 632l39 -21l-13 35zM704 44q-30 -19 -41 -19q-14 0 -14 31q0 26 25 195q19 121 27 178l-81 -43l21 48q-21 6 -35 6q-52 0 -127 -9q-99 -10 -127 -11l-126 -154l-129 -258l-56 -3l-41 44q0 82 119 265
q110 168 203 261q55 117 158 252q125 165 214 195v36l96 -54q127 2 181 4q116 6 179 20q52 14 121 39l87 30l119 5l40 -98q0 -25 -30 -80q-13 -22 -25 -22q-18 0 -29 67q0 -4 -145 -27l-255 -40l-50 -30l-66 18l-7 -99v-3q0 -38 40 -40l-43 -9l-8 -44l33 4l48 14
q41 33 56 33q39 0 136 -91l60 22l42 -62l-36 -61l-255 -67q-6 -2 -15 -2q-42 0 -42 54q0 11 5 33.5t5 33.5q-2 0 -20 -15l-29 -25l-27 -216q-6 -5 -18 -25l-25 -41l27 -32q352 83 453 83q70 0 70 -36q0 -24 -46 -100l-40 -66l97 35l-17 -58z" />
    <glyph glyph-name="ccedilla" unicode="&#xe7;" horiz-adv-x="1369" 
d="M514 2q-144 5 -252 29q-75 16 -130 55q-99 69 -125 196q-11 58 -11 128q0 21 2 53q3 43 3 55q3 86 52 174q107 193 271 233q127 103 311 103q131 0 246 -59l89 44l-57 -225v-42q0 -170 -64 -246q-28 -33 -53 -33q-39 0 -39 70q0 100 89 269l-17 34q-92 36 -142 36
q-21 0 -56 -7q-40 -9 -55 -11q-139 -13 -209 -91q-84 -91 -162 -360l26 -88l-53 -23l53 -21q118 -119 283 -119q27 0 54 3q60 -12 116 -12q124 0 180 55l318 250l4 -45l63 -12l18 -36l101 30l-368 -300q-24 -20 -72 -38q-93 -33 -227 -45l20 -55q3 -27 3 -45
q0 -180 -176 -225q-76 -18 -163 -18h-30l88 90q9 3 56 17q35 10 48 19q18 16 18 46t-15 72z" />
    <glyph glyph-name="egrave" unicode="&#xe8;" horiz-adv-x="1139" 
d="M791 632l53 -21l-17 35zM760 655l80 22l58 -62l-48 -61l-63 -13l-279 -54q-9 -2 -20 -2q-55 0 -55 53q0 12 6.5 35t6.5 33q-4 0 -28 -15l-38 -25l-35 -216q-5 0 -58 -66l35 -32q471 83 606 83q93 0 93 -36q0 -27 -54 -92l-60 -74l128 35l-23 -58l-957 -66l-188 -44
l164 128l-31 14l11 62l-34 17l54 89l102 564l-45 -38l-13 63l13 57l89 93l-9 -45q181 2 262 5q147 5 261 20q48 6 111 18q24 4 91 20l116 30l159 5l53 -98q0 -25 -41 -81q-18 -21 -33 -21q-24 0 -37 67q0 -4 -121 -18l-73 -9l-342 -40l-66 -30l-88 18l-8 -99q-2 -3 -2 -6
q0 -33 54 -37l-57 -9l-10 -44l45 4l63 14q20 13 51 28q8 5 24 5q51 0 180 -91zM672 1234l79 -135l-198 137l-32 74l9 75l40 12q0 21 16 21q18 0 48 -19q33 -20 33 -37z" />
    <glyph glyph-name="eacute" unicode="&#xe9;" horiz-adv-x="1139" 
d="M791 632l53 -21l-17 35zM760 655l80 22l58 -62l-48 -61l-63 -13l-279 -54q-9 -2 -20 -2q-55 0 -55 53q0 12 6.5 35t6.5 33q-4 0 -28 -15l-38 -25l-35 -216q-5 0 -58 -66l35 -32q471 83 606 83q93 0 93 -36q0 -27 -54 -92l-60 -74l128 35l-23 -58l-957 -66l-188 -44
l164 128l-31 14l11 62l-34 17l54 89l102 564l-45 -38l-13 63l13 57l89 93l-9 -45q181 2 262 5q147 5 261 20q48 6 111 18q24 4 91 20l116 30l159 5l53 -98q0 -25 -41 -81q-18 -21 -33 -21q-24 0 -37 67q0 -4 -121 -18l-73 -9l-342 -40l-66 -30l-88 18l-8 -99q-2 -3 -2 -6
q0 -33 54 -37l-57 -9l-10 -44l45 4l63 14q20 13 51 28q8 5 24 5q51 0 180 -91zM531 1214q78 29 78 57q0 23 -65 23h-13l-9 70l9 75l40 15q0 18 15 18q20 0 49 -18q32 -19 32 -36l5 -129l-26 -66l-204 -119z" />
    <glyph glyph-name="ecircumflex" unicode="&#xea;" horiz-adv-x="1139" 
d="M791 632l53 -21l-17 35zM1010 1097l158 5l53 -98q0 -25 -41 -81q-18 -21 -33 -21q-24 0 -37 67q0 -4 -121 -18l-73 -9l-342 -40l-66 -30l-88 18l-8 -99q-2 -3 -2 -6q0 -33 54 -37l-57 -9l-10 -44l45 4l63 14q20 13 51 28q8 5 24 5q51 0 180 -91l80 22l58 -62l-48 -61
l-63 -13l-279 -54q-9 -2 -20 -2q-55 0 -55 53q0 12 6.5 35t6.5 33q-4 0 -28 -15l-38 -25l-35 -216q-5 0 -58 -66l35 -32q471 83 606 83q93 0 93 -36q0 -27 -54 -92l-60 -74l128 35l-23 -58l-957 -66l-188 -44l164 128l-31 14l11 62l-34 17l54 89l102 564l-45 -38l-13 63
l13 57l89 93l-9 -45q181 2 262 5q147 5 261 20q48 6 111 18q24 4 91 20l116 30l-321 137l-337 -115l9 110l-44 15l380 176l394 -217l-80 -40v-66z" />
    <glyph glyph-name="edieresis" unicode="&#xeb;" horiz-adv-x="1139" 
d="M791 632l53 -21l-17 35zM760 655l80 22l58 -62l-48 -61l-63 -13l-279 -54q-9 -2 -20 -2q-55 0 -55 53q0 12 6.5 35t6.5 33q-4 0 -28 -15l-38 -25l-35 -216q-5 0 -58 -66l35 -32q471 83 606 83q93 0 93 -36q0 -27 -54 -92l-60 -74l128 35l-23 -58l-957 -66l-188 -44
l164 128l-31 14l11 62l-34 17l54 89l102 564l-45 -38l-13 63l13 57l89 93l-9 -45q181 2 262 5q147 5 261 20q48 6 111 18q24 4 91 20l116 30l159 5l53 -98q0 -25 -41 -81q-18 -21 -33 -21q-24 0 -37 67q0 -4 -121 -18l-73 -9l-342 -40l-66 -30l-88 18l-8 -99q-2 -3 -2 -6
q0 -33 54 -37l-57 -9l-10 -44l45 4l63 14q20 13 51 28q8 5 24 5q51 0 180 -91zM481 1097q-25 -23 -58 -23q-61 0 -61 65q0 12 3 28l-8 71l8 75l41 13q0 20 15 20q19 0 48 -18q33 -21 33 -37l5 -128zM867 1097q-25 -23 -58 -23q-61 0 -61 65q0 12 4 28l-9 71l9 75l40 13
q0 20 16 20q18 0 48 -18q33 -21 33 -37l4 -128z" />
    <glyph glyph-name="igrave" unicode="&#xec;" horiz-adv-x="467" 
d="M419 1047l59 11l-17 -75q2 -7 2 -15q0 -24 -36 -126l-49 -138q-19 -53 -19 -138l-75 -566l-213 26l-71 -26l31 128l88 527q6 36 11 170q1 29 3 49l35 130l248 43l-195 134l-30 73l8 75l40 14q0 19 16 19q20 0 49 -19q31 -18 32 -36l5 -128z" />
    <glyph glyph-name="iacute" unicode="&#xed;" horiz-adv-x="472" 
d="M119 655q6 36 11 170q1 29 3 49l35 130l310 54l-17 -75q2 -7 2 -15q0 -24 -36 -126l-49 -138q-19 -53 -19 -138l-75 -566l-213 26l-71 -26l31 128zM365 1214q78 29 78 57q0 23 -65 23h-13l-9 70l9 75l39 15q0 18 17 18q19 0 49 -18q31 -19 32 -36l4 -129l-27 -66
l-203 -119z" />
    <glyph glyph-name="icircumflex" unicode="&#xee;" horiz-adv-x="604" 
d="M120 655q6 36 11 170q0 29 3 49l35 130l310 54l-18 -75q3 -7 3 -15q0 -24 -36 -126l-49 -138q-20 -53 -20 -138l-75 -566l-213 26l-70 -26l31 128zM-126 1188l380 176l394 -216l-79 -39v-67l-323 137l-337 -115l9 111z" />
    <glyph glyph-name="idieresis" unicode="&#xef;" horiz-adv-x="576" 
d="M119 655q6 36 11 170q1 29 3 49l35 130l310 54l-17 -75q2 -7 2 -15q0 -24 -36 -126l-49 -138q-19 -53 -19 -138l-75 -566l-213 26l-71 -26l31 128zM204 1097q-25 -23 -58 -23q-60 0 -60 65q0 12 3 28l-9 71l9 75l40 13q0 20 17 20q18 0 48 -18q32 -21 33 -37l3 -128z
M591 1097q-25 -23 -58 -23q-60 0 -60 65q0 12 3 28l-9 71l9 75l39 13q0 20 17 20q18 0 49 -18q31 -21 32 -37l4 -128z" />
    <glyph glyph-name="eth" unicode="&#xf0;" horiz-adv-x="1386" 
d="M89 632l31 174l-57 30l18 129l79 62q53 -58 119 -58q12 0 32 5q146 31 262 31q195 0 321 -76q264 -63 363 -219q42 -65 70 -155q11 -37 41 -166q-27 -65 -206 -162q-191 -105 -351 -110q-150 -49 -334 -65q-111 -11 -262 -11q-64 0 -158 3l-113 -13l57 111l46 259l28 -74
l-5 144l-144 2l8 63l49 39q-4 0 -18 -3l-26 -6l10 75q21 0 140 -9zM218 468l76 -61l-60 -241l174 7q153 5 359 72q107 36 183 81q118 70 118 145q0 11 -1 16q-11 115 -50 176l-78 50l31 8l-31 25q-41 35 -120 66q-126 50 -291 50q-64 0 -111 -8q-39 -6 -54 -129
q-6 -60 -12 -79l-12 -32q15 -1 78 -6l89 -6l-27 -36q-3 0 -20 -6t-24 -6l52 -32l-79 -58z" />
    <glyph glyph-name="ntilde" unicode="&#xf1;" horiz-adv-x="1150" 
d="M1067 690l-62 -438q-51 -19 -78 -70q-26 -48 -26 -105q0 -39 11 -77l-137 119l-10 63q3 6 3 12q0 49 -121 156q-119 104 -166 104q-99 46 -151 171q-25 60 -25 121q0 29 6 55l-44 8l-85 -353l-39 -44l25 -30l-84 -368l-128 -36l67 283q34 77 34 205v35q0 90 24 128
l92 380l54 19l40 -72l48 -5l45 80l52 -62q-4 -31 -4 -59q0 -206 147 -341q105 -97 264 -153l57 234q37 0 45 87q4 36 4 64l26 257q-2 13 -2 22q0 54 56 54q60 0 102 -55q19 -26 19 -57q0 -25 -16 -53q-3 -98 -26 -145q-19 -36 -19 -93q0 -9 2 -41zM720 1123q-141 82 -247 82
q-74 0 -131 -44q-24 -17 -27 -17q-5 0 -7 10l-155 88q30 68 151 110q99 33 192 33q84 0 126 -27q6 0 14 -37.5t9 -37.5q51 -8 93 -8q129 0 191 53q31 26 46 60l111 -128q-45 -109 -189 -134q-44 -8 -94 -8q-41 0 -83 5z" />
    <glyph glyph-name="ograve" unicode="&#xf2;" horiz-adv-x="1408" 
d="M784 1179l79 -135l-199 137l-30 73l8 75l40 14q0 19 16 19q19 0 49 -19q31 -19 32 -36zM131 86q-98 69 -124 196q-11 59 -11 128q0 20 2 53q3 40 3 55q3 123 103 253q107 140 242 149q59 72 185 96q59 12 124 12q191 0 342 -77q252 -58 312 -224q21 -61 33 -167
q16 -129 26 -171q-39 -90 -163 -203q-149 -137 -301 -142q-150 -47 -331 -47q-68 0 -151 8q-205 23 -291 81zM567 159q196 7 322 50q222 78 222 215v4q-1 0 -4 33q-5 53 -16 114q-8 49 -37 93l-115 45l67 12l-67 21q-22 7 -79 45q-25 15 -41 21l-86 33q-54 21 -90 21
q-33 0 -67 -8q-75 -7 -118 -25q-101 -40 -173 -197q-38 -82 -81 -229l27 -88l-53 -23l48 -21q36 -17 126 -59q124 -57 211 -57h4z" />
    <glyph glyph-name="oacute" unicode="&#xf3;" horiz-adv-x="1395" 
d="M697 1214q78 29 78 57q0 23 -65 23h-13l-8 70l8 75l41 15q0 18 16 18q19 0 48 -18q33 -20 33 -36l4 -129l-26 -66l-204 -119zM131 86q-98 69 -124 196q-11 59 -11 128q0 20 2 53q3 40 3 55q3 123 103 253q107 140 242 149q59 72 185 96q59 12 124 12q191 0 342 -77
q252 -58 312 -224q21 -61 33 -167q16 -129 26 -171q-39 -90 -163 -203q-149 -137 -301 -142q-150 -47 -331 -47q-68 0 -151 8q-205 23 -291 81zM567 159q196 7 322 50q222 78 222 215v4q-1 0 -4 33q-5 53 -16 114q-8 49 -37 93l-115 45l67 12l-67 21q-22 7 -79 45
q-25 15 -41 21l-86 33q-54 21 -90 21q-33 0 -67 -8q-75 -7 -118 -25q-101 -40 -173 -197q-38 -82 -81 -229l27 -88l-53 -23l48 -21q36 -17 126 -59q124 -57 211 -57h4z" />
    <glyph glyph-name="ocircumflex" unicode="&#xf4;" horiz-adv-x="1408" 
d="M427 1188l381 176l393 -216l-79 -39v-67l-323 137l-336 -115l9 111zM131 86q-98 69 -124 196q-11 59 -11 128q0 20 2 53q3 40 3 55q3 123 103 253q107 140 242 149q59 72 185 96q59 12 124 12q191 0 342 -77q252 -58 312 -224q21 -61 33 -167q16 -129 26 -171
q-39 -90 -163 -203q-149 -137 -301 -142q-150 -47 -331 -47q-68 0 -151 8q-205 23 -291 81zM567 159q196 7 322 50q222 78 222 215v4q-1 0 -4 33q-5 53 -16 114q-8 49 -37 93l-115 45l67 12l-67 21q-22 7 -79 45q-25 15 -41 21l-86 33q-54 21 -90 21q-33 0 -67 -8
q-75 -7 -118 -25q-101 -40 -173 -197q-38 -82 -81 -229l27 -88l-53 -23l48 -21q36 -17 126 -59q124 -57 211 -57h4z" />
    <glyph glyph-name="otilde" unicode="&#xf5;" horiz-adv-x="1395" 
d="M885 1084q-140 82 -245 82q-76 0 -132 -43q-24 -18 -28 -18q-5 0 -7 10l-154 88q29 69 150 110q99 33 192 33q84 0 127 -27q5 0 13.5 -37.5t9.5 -37.5q51 -8 94 -8q128 0 189 53q31 26 48 60l110 -128q-45 -109 -189 -133q-48 -9 -95 -9q-40 0 -83 5zM131 86
q-98 69 -124 196q-11 59 -11 128q0 20 2 53q3 40 3 55q3 123 103 253q107 140 242 149q59 72 185 96q59 12 124 12q191 0 342 -77q252 -58 312 -224q21 -61 33 -167q16 -129 26 -171q-39 -90 -163 -203q-149 -137 -301 -142q-150 -47 -331 -47q-68 0 -151 8q-205 23 -291 81
zM567 159q196 7 322 50q222 78 222 215v4q-1 0 -4 33q-5 53 -16 114q-8 49 -37 93l-115 45l67 12l-67 21q-22 7 -79 45q-25 15 -41 21l-86 33q-54 21 -90 21q-33 0 -67 -8q-75 -7 -118 -25q-101 -40 -173 -197q-38 -82 -81 -229l27 -88l-53 -23l48 -21q36 -17 126 -59
q124 -57 211 -57h4z" />
    <glyph glyph-name="odieresis" unicode="&#xf6;" horiz-adv-x="1408" 
d="M538 1058q-27 -23 -59 -23q-60 0 -60 65q0 12 3 28l-9 71l9 75l41 14q0 19 15 19q19 0 50 -19t31 -36l4 -128zM923 1058q-25 -23 -57 -23q-61 0 -61 65q0 12 3 28l-8 71l8 75l41 14q0 19 16 19q18 0 49.5 -19t31.5 -36l4 -128zM131 86q-98 69 -124 196q-11 59 -11 128
q0 20 2 53q3 40 3 55q3 123 103 253q107 140 242 149q59 72 185 96q59 12 124 12q191 0 342 -77q252 -58 312 -224q21 -61 33 -167q16 -129 26 -171q-39 -90 -163 -203q-149 -137 -301 -142q-150 -47 -331 -47q-68 0 -151 8q-205 23 -291 81zM567 159q196 7 322 50
q222 78 222 215v4q-1 0 -4 33q-5 53 -16 114q-8 49 -37 93l-115 45l67 12l-67 21q-22 7 -79 45q-25 15 -41 21l-86 33q-54 21 -90 21q-33 0 -67 -8q-75 -7 -118 -25q-101 -40 -173 -197q-38 -82 -81 -229l27 -88l-53 -23l48 -21q36 -17 126 -59q124 -57 211 -57h4z" />
    <glyph glyph-name="divide" unicode="&#xf7;" horiz-adv-x="978" 
d="M105 725h19q78 0 212 -6q112 -5 121 -6h-4l348 -11q148 34 160 34l-38 -83l17 -111l-243 -45l-415 28l-199 50l44 61zM599 215q-31 -27 -72 -27q-76 0 -76 80q0 16 4 36l-10 88l14 50l61 22q0 22 13 22q32 0 75 -51q15 -18 17 -31l7 -105zM599 768q-31 -28 -72 -28
q-76 0 -76 81q0 15 4 36l-10 88l10 94l50 17q0 24 21 24q22 0 60 -22q40 -26 41 -47l5 -160z" />
    <glyph glyph-name="oslash" unicode="&#xf8;" horiz-adv-x="1397" 
d="M1009 947l18 22l88 31l-75 -5l92 120q3 -2 45 -27l71 -39l-4 -84q-10 -14 -73 -81q123 -73 156 -216q9 -45 19.5 -139t21.5 -140q-39 -90 -163 -203q-149 -137 -301 -142q-149 -47 -331 -47q-101 0 -224 18l-106 -89q-5 -5 -17 -14l-88 -27l9 93l-62 -4l93 85
q-182 85 -182 351q0 20 2 53q3 40 3 55q3 123 103 253q107 140 242 149q59 72 185 96q59 12 124 12q191 0 342 -77q9 -2 12 -4zM868 785q-27 19 -49 27l-86 33q-54 21 -90 21q-33 0 -67 -8q-75 -7 -118 -25q-101 -40 -173 -197q-38 -82 -81 -229l27 -88l-53 -23l48 -21
q13 -6 46 -21l41 -21q6 -3 34 -15l233 216l137 155l37 26l8 49zM517 161q25 -2 43 -2h7q373 13 493 151q51 59 51 114v4q-1 0 -4 33q-5 53 -16 114q-8 49 -37 93l-63 24l-30 -33l-71 -27l53 -9l-70 -105l-254 -252l-105 -5l75 -35q-9 -11 -72 -65z" />
    <glyph glyph-name="ugrave" unicode="&#xf9;" horiz-adv-x="1146" 
d="M561 1179l80 -135l-199 137l-31 73l9 75l40 13q0 20 16 20q19 0 49 -19q32 -19 32 -36zM299 221q0 -10 -17 -16q-21 -8 -26 -12q-11 -12 -11 -34l71 31q54 -34 126 -34q22 0 38 3q79 10 133 33q116 50 156 148q15 36 25 76l66 234q36 0 45 87q3 36 3 64l27 256
q-3 14 -3 23q0 54 71 54q62 0 103 -55q19 -26 19 -57q0 -25 -15 -53q-9 -224 -72 -442q-21 -69 -39 -115q-15 -159 -104 -245q-113 -110 -405 -149q-258 0 -381 133q-93 99 -93 205q0 24 6 24q-8 35 -8 63q0 61 31 122q16 33 34 63l93 381l54 18l55 -72l39 -154l-88 -355
l-75 -34l62 -59q-3 -14 -3 -27q0 -33 27 -60q19 -14 56 -45z" />
    <glyph glyph-name="uacute" unicode="&#xfa;" horiz-adv-x="1146" 
d="M696 1214q78 29 78 57q0 23 -65 23h-13l-8 70l8 75l40 14q0 19 17 19q19 0 48 -18q32 -20 33 -37l4 -128l-27 -66l-204 -119zM299 221q0 -10 -17 -16q-21 -8 -26 -12q-11 -12 -11 -34l71 31q54 -34 126 -34q22 0 38 3q79 10 133 33q116 50 156 148q15 36 25 76l66 234
q36 0 45 87q3 36 3 64l27 256q-3 14 -3 23q0 54 71 54q62 0 103 -55q19 -26 19 -57q0 -25 -15 -53q-9 -224 -72 -442q-21 -69 -39 -115q-15 -159 -104 -245q-113 -110 -405 -149q-258 0 -381 133q-93 99 -93 205q0 24 6 24q-8 35 -8 63q0 61 31 122q16 33 34 63l93 381
l54 18l55 -72l39 -154l-88 -355l-75 -34l62 -59q-3 -14 -3 -27q0 -33 27 -60q19 -14 56 -45z" />
    <glyph glyph-name="ucircumflex" unicode="&#xfb;" horiz-adv-x="1146" 
d="M205 1243l380 177l326 -180l-53 -17l24 -100l-323 138l-316 -108l7 76zM299 221q0 -10 -17 -16q-21 -8 -26 -12q-11 -12 -11 -34l71 31q54 -34 126 -34q22 0 38 3q79 10 133 33q116 50 156 148q15 36 25 76l66 234q36 0 45 87q3 36 3 64l27 256q-3 14 -3 23q0 54 71 54
q62 0 103 -55q19 -26 19 -57q0 -25 -15 -53q-9 -224 -72 -442q-21 -69 -39 -115q-15 -159 -104 -245q-113 -110 -405 -149q-258 0 -381 133q-93 99 -93 205q0 24 6 24q-8 35 -8 63q0 61 31 122q16 33 34 63l93 381l54 18l55 -72l39 -154l-88 -355l-75 -34l62 -59
q-3 -14 -3 -27q0 -33 27 -60q19 -14 56 -45z" />
    <glyph glyph-name="udieresis" unicode="&#xfc;" horiz-adv-x="1146" 
d="M481 1057q-25 -22 -58 -22q-60 0 -60 64q0 13 3 29l-9 71l9 75l40 14q0 19 16 19q19 0 49 -18q31 -20 32 -37l4 -128zM868 1057q-25 -22 -58 -22q-61 0 -61 64q0 13 4 29l-9 71l9 75l39 14q0 19 16 19q20 0 49 -18q32 -20 32 -37l5 -128zM299 221q0 -10 -17 -16
q-21 -8 -26 -12q-11 -12 -11 -34l71 31q54 -34 126 -34q22 0 38 3q79 10 133 33q116 50 156 148q15 36 25 76l66 234q36 0 45 87q3 36 3 64l27 256q-3 14 -3 23q0 54 71 54q62 0 103 -55q19 -26 19 -57q0 -25 -15 -53q-9 -224 -72 -442q-21 -69 -39 -115q-15 -159 -104 -245
q-113 -110 -405 -149q-258 0 -381 133q-93 99 -93 205q0 24 6 24q-8 35 -8 63q0 61 31 122q16 33 34 63l93 381l54 18l55 -72l39 -154l-88 -355l-75 -34l62 -59q-3 -14 -3 -27q0 -33 27 -60q19 -14 56 -45z" />
    <glyph glyph-name="yacute" unicode="&#xfd;" horiz-adv-x="1053" 
d="M216 164q-44 -57 -44 -133l50 31zM199 951l-40 5l40 -45q-2 -6 -2 -12q0 -31 65 -66q71 -27 206 -95l37 22q23 34 92 62q103 42 111 47q53 30 53 75q0 2 -4 3l74 30l-39 9q99 54 183 54q42 0 43 -27l110 -39l-66 -9l-13 -21q-35 -56 -92 -98q-33 -25 -81 -40
q-81 -50 -150 -142q-28 -37 -45 -53q-192 -201 -216 -469q-12 -130 -120 -130q-35 0 -84 14l-132 -57q-6 12 -6 30q0 98 133 372l93 -12l-70 71q57 97 106 154q-223 71 -293 165q-35 48 -39 101l-31 106l101 62l81 4zM642 1214q78 29 78 57q0 23 -64 23h-14l-9 70l9 75
l39 15q0 18 17 18q19 0 49 -18q31 -20 32 -36l4 -129l-26 -66l-204 -119z" />
    <glyph glyph-name="thorn" unicode="&#xfe;" horiz-adv-x="918" 
d="M184 320l-70 -306l-158 -36l67 283q34 77 34 205v35q0 90 24 128l101 447l86 26l53 -71l-33 -195q66 117 174 117q7 0 21 -2q183 -20 219 -31q111 -32 162 -132q39 -78 39 -210v-3q0 -133 -51 -243q-56 -123 -164 -183q-94 -54 -202 -54q-69 0 -132 21q-115 48 -151 119
q-19 36 -19 85zM621 292q42 1 66 35q47 57 47 141q0 53 4 122q0 48 -31 87q-23 45 -68 75q-48 33 -97 33q-20 0 -35 -6q-45 -18 -111 -75l-48 36l27 -63l-48 -45q-31 -24 -31 -56q0 -11 16 -11l-19 -133q12 -95 27 -118q53 -67 143 -67q26 0 53 5l70 -31l-49 35l76 9z" />
    <glyph glyph-name="ydieresis" unicode="&#xff;" horiz-adv-x="1053" 
d="M216 164q-44 -57 -44 -133l50 31zM199 951l-40 5l40 -45q-2 -6 -2 -12q0 -31 65 -66q71 -27 206 -95l37 22q23 34 92 62q103 42 111 47q53 30 53 75q0 2 -4 3l74 30l-39 9q99 54 183 54q42 0 43 -27l110 -39l-66 -9l-13 -21q-35 -56 -92 -98q-33 -25 -81 -40
q-81 -50 -150 -142q-28 -37 -45 -53q-192 -201 -216 -469q-12 -130 -120 -130q-35 0 -84 14l-132 -57q-6 12 -6 30q0 98 133 372l93 -12l-70 71q57 97 106 154q-223 71 -293 165q-35 48 -39 101l-31 106l101 62l81 4zM481 1058q-25 -23 -58 -23q-60 0 -60 65q0 12 3 28
l-9 71l9 75l40 14q0 19 17 19q18 0 48 -18q32 -20 33 -37l3 -128zM868 1058q-25 -23 -58 -23q-60 0 -60 65q0 12 3 28l-9 71l9 75l39 14q0 19 17 19q19 0 49 -18q31 -20 32 -37l4 -128z" />
    <glyph glyph-name="dotlessi" unicode="&#x131;" horiz-adv-x="472" 
d="M119 655q6 36 11 170q1 29 3 49l35 130l310 54l-17 -75q2 -7 2 -15q0 -24 -36 -126l-49 -138q-19 -53 -19 -138l-75 -566l-213 26l-71 -26l31 128z" />
    <glyph glyph-name="circumflex" unicode="&#x2c6;" horiz-adv-x="1015" 
d="M50 974l474 220l493 -271l-100 -49v-83l-403 171l-421 -144l12 138z" />
    <glyph glyph-name="caron" unicode="&#x2c7;" horiz-adv-x="1015" 
d="M1017 1011l-474 -220l-493 270l100 50v83l403 -171l421 143l-12 -138z" />
    <glyph glyph-name="uni02C9" unicode="&#x2c9;" horiz-adv-x="769" 
d="M191 896v94h387v-94h-387z" />
    <glyph glyph-name="breve" unicode="&#x2d8;" horiz-adv-x="768" 
d="M164 1012h38q13 -55 56.5 -80.5t125.5 -25.5t124.5 25t55.5 81h38q-15 -100 -70.5 -151.5t-147.5 -51.5t-148 52t-72 151z" />
    <glyph glyph-name="dotaccent" unicode="&#x2d9;" horiz-adv-x="768" 
d="M317 967l51 54q5 4 10 6.5t11 2.5q4 0 9 -2.5t9 -6.5l54 -57q3 -3 4.5 -7.5t1.5 -10.5q0 -7 -1.5 -11.5t-6.5 -8.5l-53 -57q-9 -9 -12 -10.5t-5 -1.5q-8 0 -13 1.5t-8 6.5l-56 65q-3 3 -4.5 7t-1.5 10q0 5 2.5 10t8.5 10z" />
    <glyph glyph-name="ring" unicode="&#x2da;" horiz-adv-x="768" 
d="M308 943q0 -32 22 -53.5t53 -21.5q32 0 53.5 21.5t21.5 53.5q0 30 -22 52t-53 22t-53 -22t-22 -52zM251 943q0 56 38.5 94.5t93.5 38.5q57 0 95.5 -39t38.5 -94q0 -56 -38.5 -95t-95.5 -39q-55 0 -93.5 39t-38.5 95z" />
    <glyph glyph-name="ogonek" unicode="&#x2db;" horiz-adv-x="768" 
d="M480 0q-53 -46 -82.5 -89.5t-29.5 -84.5q0 -35 20 -56t55 -21q30 0 52 11.5t37 36.5l21 -12q-27 -47 -68 -72.5t-89 -25.5q-53 0 -86 26.5t-33 67.5q0 57 45.5 117.5t121.5 101.5h36z" />
    <glyph glyph-name="tilde" unicode="&#x2dc;" horiz-adv-x="1101" 
d="M692 941q-176 102 -308 102q-93 0 -165 -54q-29 -22 -33 -22q-7 0 -9 12l-194 111q38 86 190 136q122 41 240 41q104 0 157 -34q17 0 27 -94q64 -9 119 -9q161 0 237 66q38 33 59 76l139 -160q-58 -137 -239 -168q-55 -9 -117 -9q-49 0 -103 6z" />
    <glyph glyph-name="hungarumlaut" unicode="&#x2dd;" horiz-adv-x="365" 
d="M281 1289q-97 -36 -97 -71q0 -29 80 -29h17l12 -89l-12 -93l-49 -17q0 -25 -20 -25q-23 0 -61 24q-40 25 -41 45l-5 160l32 83l255 150zM40 1289q-99 -36 -99 -71q0 -29 82 -29h17l10 -89l-10 -93l-51 -17q0 -25 -20 -25q-21 0 -60 24q-41 26 -42 45l-5 160l34 83
l254 150z" />
    <glyph glyph-name="endash" unicode="&#x2013;" horiz-adv-x="1209" 
d="M32 725q0 4 279 33q104 11 118 11h2l348 -11q15 -1 61 -4l337 -18l-161 -62l156 -71l-310 -50l-581 -28l-254 83l99 28z" />
    <glyph glyph-name="emdash" unicode="&#x2014;" horiz-adv-x="1015" 
d="M105 725q0 7 160 27q143 17 165 17h1l348 -11l182 -22l-38 -83l17 -111l-337 -33l-321 16l-199 50l44 61z" />
    <glyph glyph-name="quoteleft" unicode="&#x2018;" horiz-adv-x="140" 
d="M38 1289q-97 -36 -97 -71q0 -29 80 -29h17l12 -89l-12 -93l-49 -17q0 -25 -20 -25q-23 0 -61 24q-40 25 -41 45l-5 160l32 83l255 150z" />
    <glyph glyph-name="quoteright" unicode="&#x2019;" horiz-adv-x="140" 
d="M-27 1103q98 36 98 71q0 29 -81 29h-17l-11 89l11 93l50 17q0 25 20 25q22 0 61 -24q39 -25 40 -45l5 -160l-32 -83l-255 -150z" />
    <glyph glyph-name="quotesinglbase" unicode="&#x201a;" horiz-adv-x="339" 
d="M-27 -71q98 34 98 70q0 29 -81 29h-17l-11 88l11 94l50 17q0 24 20 24q23 0 61 -23q39 -25 40 -46l5 -159l-32 -84l-255 -149z" />
    <glyph glyph-name="quotedblleft" unicode="&#x201c;" horiz-adv-x="365" 
d="M281 1289q-97 -36 -97 -71q0 -29 80 -29h17l12 -89l-12 -93l-49 -17q0 -25 -20 -25q-23 0 -61 24q-40 25 -41 45l-5 160l32 83l255 150zM40 1289q-99 -36 -99 -71q0 -29 82 -29h17l10 -89l-10 -93l-51 -17q0 -25 -20 -25q-21 0 -60 24q-41 26 -42 45l-5 160l34 83
l254 150z" />
    <glyph glyph-name="quotedblright" unicode="&#x201d;" horiz-adv-x="365" 
d="M-27 1103q98 36 98 71q0 29 -81 29h-17l-11 89l11 93l50 17q0 25 20 25q22 0 61 -24q39 -25 40 -45l5 -160l-32 -83l-255 -150zM215 1103q99 36 99 71q0 29 -82 29h-17l-10 89l10 93l51 17q0 25 19 25q22 0 60 -24q41 -26 42 -45l5 -160l-33 -83l-255 -150z" />
    <glyph glyph-name="quotedblbase" unicode="&#x201e;" horiz-adv-x="581" 
d="M-27 -70q98 34 98 69q0 30 -81 30h-17l-11 88l11 94l50 16q0 25 20 25q22 0 61 -23q39 -26 40 -46l5 -160l-32 -83l-255 -149zM215 -70q99 34 99 69q0 30 -82 30h-17l-10 88l10 94l51 16q0 25 19 25q22 0 60 -23q41 -26 42 -46l5 -160l-33 -83l-255 -149z" />
    <glyph glyph-name="dagger" unicode="&#x2020;" horiz-adv-x="541" 
d="M415 1034q-43 -111 -59 -163q-29 -95 -37 -169l-37 -88l22 -78l-50 -293l-177 -77l100 658q6 39 34 156l-128 -34l310 535l187 -403z" />
    <glyph glyph-name="daggerdbl" unicode="&#x2021;" horiz-adv-x="542" 
d="M104 349l73 475q6 39 34 156l-128 -34l310 535l188 -403l-166 -44q-43 -111 -59 -163q-29 -95 -36 -169l-38 -88l23 -78l-25 -145l123 30l-215 -355l-155 266z" />
    <glyph glyph-name="bullet" unicode="&#x2022;" horiz-adv-x="925" 
d="M467 285h-5q-65 0 -156 44q-19 10 -78 37l-35 15l38 16l-18 62q56 194 105 252q27 31 60 45q24 10 79 17q34 6 56 6q40 0 132 -36q26 -18 83 -45l47 -15l-47 -9l81 -31q37 -58 37 -147q2 -10 2 -20q0 -102 -157 -156q-88 -31 -224 -35z" />
    <glyph glyph-name="ellipsis" unicode="&#x2026;" horiz-adv-x="859" 
d="M117 -61q-32 -27 -73 -27q-75 0 -75 80q0 16 4 36l-11 88l11 94l50 17q0 24 20 24q23 0 61 -23q40 -25 40 -46l6 -159zM366 -61q-32 -27 -73 -27q-76 0 -76 80q0 16 5 36l-12 88l12 94l49 17q0 24 20 24q24 0 61 -23q40 -25 41 -46l5 -159zM635 -61q-31 -27 -72 -27
q-75 0 -75 80q0 16 3 36l-11 88l11 94l50 17q0 24 21 24q23 0 60 -23q41 -25 41 -46l5 -159z" />
    <glyph glyph-name="guilsinglleft" unicode="&#x2039;" horiz-adv-x="1079" 
d="M1007 603l-46 -255l-928 354l304 150l50 -12l6 51l608 209l16 -237l-536 -166z" />
    <glyph glyph-name="guilsinglright" unicode="&#x203a;" horiz-adv-x="1126" 
d="M169 779l44 255l929 -354l-304 -150l-49 12l-7 -51l-608 -209l-16 238l536 166z" />
    <glyph glyph-name="fraction" unicode="&#x2044;" horiz-adv-x="257" 
d="M-256 -22l705 1096h63l-703 -1096h-65z" />
    <glyph glyph-name="fraction" unicode="&#x2215;" horiz-adv-x="257" 
d="M-256 -22l705 1096h63l-703 -1096h-65z" />
    <glyph glyph-name="franc" unicode="&#x20a3;" horiz-adv-x="1425" 
d="M43 407l57 318l222 132l-195 17l40 218l-55 -47l-18 78l18 71l111 117l-12 -55q226 1 327 5q185 7 327 25q60 8 139 23q29 4 114 24l144 39l200 5l66 -121q0 -33 -52 -102q-21 -27 -40 -27q-31 0 -47 84q0 -4 -151 -22l-92 -11l-426 -50l-83 -38l-111 22l-38 -177l11 -67
l55 6l78 16q26 18 64 36q10 6 30 6q64 0 226 -114l172 -49l-61 -77l-78 -16l-348 -68q-31 7 -56 7q-18 0 -31 -1q-18 0 -73 94l-53 -282l190 -6l182 -22l-38 -83l17 -110l-337 -33l-56 3q-6 -11 -13 -22q-85 -135 -207 -153l-227 -33l66 210l11 37l-94 24l44 61l-22 88
q0 6 103 20z" />
    <glyph glyph-name="lira" unicode="&#x20a4;" horiz-adv-x="1275" 
d="M1205 38q-143 87 -538 87q-429 0 -598 -69l-235 -56l128 100q102 79 102 109q0 31 -12.5 90t-13.5 88l44 236l-146 -5q21 67 27 72l-22 155q11 0 208 26l34 159q33 159 103 308q38 49 96 77q3 2 5 2q4 0 4 -11q0 -9 -1 -21q0 -19 13 -19q15 4 68 43q50 38 65 38
q198 -4 470 -181l-169 -151l-59 31q-60 31 -138 31q-11 1 -20 1q-80 0 -80 -59l-37 -243l140 8l122 16l-22 -88q-94 -43 -94 -50q0 -8 40 -23q14 -5 50 -19q21 -8 21 -13l-117 -50l-181 -43l-31 -177q-5 0 -72 -83l44 -39q14 -12 59 -12q41 0 169 18l183 26q48 8 124 8h12
q197 0 217 -106l127 -39z" />
    <glyph glyph-name="peseta" unicode="&#x20a7;" horiz-adv-x="1677" 
d="M543 1045l-16 -53q-37 -129 -37 -174q0 -21 13 -21l-22 -45l-72 -66l94 55l111 11h36q359 0 505 120q90 73 94 135l-270 32q-153 17 -276 17q-98 0 -160 -11zM62 410l149 696l-89 -28l50 188l83 -16l133 -33q188 39 328 39q218 0 401 -95q91 5 159 11l113 8
q140 10 218 10q173 0 191 -51q-64 -215 -360 -360q-219 -109 -504 -156q-60 -54 -247 -82q-102 -15 -173 -20l-148 -12l-56 33l39 -55l-15 -58l279 -9l183 -22l-39 -83l18 -110l-338 -33l-169 8l-41 -157l-110 -84l-205 -50l61 139l-11 88l11 94l23 8l-79 20l44 61l-22 88
q0 7 123 23z" />
    <glyph glyph-name="Euro" unicode="&#x20ac;" horiz-adv-x="1708" 
d="M526 324q137 -129 267 -129q33 0 66 4q77 -15 146 -15q154 0 225 68l172 125l5 -55l78 -15l22 -46l53 -7l-160 -143q-40 -33 -128 -60q-166 -50 -409 -50q-148 0 -318 37q-93 21 -163 69q-119 83 -153 233l-191 49l44 60l-22 89q0 7 154 26q0 7 1 14q3 54 4 69v3l-181 46
l44 61l-22 88q0 8 160 27q42 6 73 9q131 227 329 275q159 128 322 128q164 0 308 -73l111 55l-72 -282l-84 23l-21 43q-114 45 -178 45q-26 0 -84 -2q-50 -11 -69 -13q-91 -24 -179 -121q-28 -31 -55 -77l113 -4l182 -21l-38 -84l17 -110l-337 -33l-47 2q-9 -26 -17 -54
l240 -7l182 -22l-38 -83l17 -110l-337 -33z" />
    <glyph glyph-name="afii61352" unicode="&#x2116;" 
d="M0 200v1100q0 200 200 200h1100q200 0 200 -200v-1100q0 -200 -200 -200h-1100q-200 0 -200 200zM1475 201v1099q0 175 -175 175h-1100q-174 0 -175 -175v-1100q1 -175 175 -175h1101q174 0 174 176z" />
    <glyph glyph-name="trademark" unicode="&#x2122;" horiz-adv-x="940" 
d="M439 1366h-2q-11 0 -58 -9l-113 -22q1 -35 1 -46q0 -68 -41 -175l12 4q-5 -64 -72 -115q-27 -21 -57 -24l-55 -24l58 292l75 45l-65 5l4 45l-17 -13l-55 -3l-53 27l-8 22l23 5l10 -9q53 12 160 12h24q22 0 39 -1q48 31 123 31q31 0 49 -9q7 23 41 23q24 0 52 -12l-23 -12
q-1 -37 -52 -37zM658 1346l27 7l13 7l-11 6q-11 0 -29 -20zM833 1218l50 35q8 6 9 18q36 48 36 68q0 14 -12 19l24 28l26 2l25 -15l17 -7l-11 -53l-13 -16l-5 -77q-2 -15 -9 -83q-5 -46 -5 -82q0 -47 32 -58l-42 -29h-78l26 44q11 8 11 44q-1 15 -4 71l-4 75
q-60 -78 -166 -191q-19 -19 -42 -36l-90 -1l81 78q-37 20 -37 102q0 34 7 66l-68 -84l-15 -7l4 -10q-108 -142 -108 -151l-36 -6l-21 27l60 127l46 56l-5 19q46 77 119 154q29 29 43 35l38 -7l17 -21v-34q0 -30 -6.5 -89t-6.5 -89q0 -38 19 -43l55 75q4 6 23 22l51 8z" />
    <glyph glyph-name="partialdiff" unicode="&#x2202;" 
d="M0 200v1100q0 200 200 200h1100q200 0 200 -200v-1100q0 -200 -200 -200h-1100q-200 0 -200 200zM1475 201v1099q0 175 -175 175h-1100q-174 0 -175 -175v-1100q1 -175 175 -175h1101q174 0 174 176z" />
    <glyph glyph-name="Delta" unicode="&#x2206;" 
d="M0 200v1100q0 200 200 200h1100q200 0 200 -200v-1100q0 -200 -200 -200h-1100q-200 0 -200 200zM1475 201v1099q0 175 -175 175h-1100q-174 0 -175 -175v-1100q1 -175 175 -175h1101q174 0 174 176z" />
    <glyph glyph-name="product" unicode="&#x220f;" 
d="M0 200v1100q0 200 200 200h1100q200 0 200 -200v-1100q0 -200 -200 -200h-1100q-200 0 -200 200zM1475 201v1099q0 175 -175 175h-1100q-174 0 -175 -175v-1100q1 -175 175 -175h1101q174 0 174 176z" />
    <glyph glyph-name="summation" unicode="&#x2211;" 
d="M0 200v1100q0 200 200 200h1100q200 0 200 -200v-1100q0 -200 -200 -200h-1100q-200 0 -200 200zM1475 201v1099q0 175 -175 175h-1100q-174 0 -175 -175v-1100q1 -175 175 -175h1101q174 0 174 176z" />
    <glyph glyph-name="minus" unicode="&#x2212;" horiz-adv-x="1209" 
d="M32 725q0 4 279 33q104 11 118 11h2l348 -11q15 -1 61 -4l337 -18l-161 -62l156 -71l-310 -50l-581 -28l-254 83l99 28z" />
    <glyph glyph-name="radical" unicode="&#x221a;" 
d="M0 200v1100q0 200 200 200h1100q200 0 200 -200v-1100q0 -200 -200 -200h-1100q-200 0 -200 200zM1475 201v1099q0 175 -175 175h-1100q-174 0 -175 -175v-1100q1 -175 175 -175h1101q174 0 174 176z" />
    <glyph glyph-name="infinity" unicode="&#x221e;" 
d="M0 200v1100q0 200 200 200h1100q200 0 200 -200v-1100q0 -200 -200 -200h-1100q-200 0 -200 200zM1475 201v1099q0 175 -175 175h-1100q-174 0 -175 -175v-1100q1 -175 175 -175h1101q174 0 174 176z" />
    <glyph glyph-name="integral" unicode="&#x222b;" 
d="M0 200v1100q0 200 200 200h1100q200 0 200 -200v-1100q0 -200 -200 -200h-1100q-200 0 -200 200zM1475 201v1099q0 175 -175 175h-1100q-174 0 -175 -175v-1100q1 -175 175 -175h1101q174 0 174 176z" />
    <glyph glyph-name="approxequal" unicode="&#x2248;" 
d="M0 200v1100q0 200 200 200h1100q200 0 200 -200v-1100q0 -200 -200 -200h-1100q-200 0 -200 200zM1475 201v1099q0 175 -175 175h-1100q-174 0 -175 -175v-1100q1 -175 175 -175h1101q174 0 174 176z" />
    <glyph glyph-name="lessequal" unicode="&#x2264;" 
d="M0 200v1100q0 200 200 200h1100q200 0 200 -200v-1100q0 -200 -200 -200h-1100q-200 0 -200 200zM1475 201v1099q0 175 -175 175h-1100q-174 0 -175 -175v-1100q1 -175 175 -175h1101q174 0 174 176z" />
    <glyph glyph-name="greaterequal" unicode="&#x2265;" 
d="M0 200v1100q0 200 200 200h1100q200 0 200 -200v-1100q0 -200 -200 -200h-1100q-200 0 -200 200zM1475 201v1099q0 175 -175 175h-1100q-174 0 -175 -175v-1100q1 -175 175 -175h1101q174 0 174 176z" />
    <glyph glyph-name="uniF001" unicode="&#xf001;" horiz-adv-x="805" 
 />
    <glyph glyph-name="uniF001" unicode="&#xfb01;" horiz-adv-x="805" 
 />
    <glyph glyph-name="uniF002" unicode="&#xf002;" horiz-adv-x="811" 
 />
    <glyph glyph-name="uniF002" unicode="&#xfb02;" horiz-adv-x="811" 
 />
  </font>
</defs>
</svg>
